<?xml version="1.0" encoding="UTF-8" standalone="no"?>
<!DOCTYPE svg PUBLIC "-//W3C//DTD SVG 1.1//EN" "http://www.w3.org/Graphics/SVG/1.1/DTD/svg11.dtd">
<svg xmlns="http://www.w3.org/2000/svg" version="1.1" viewBox="0.00 0.00 1080.00 1080.00">
<g stroke-width="2.00" fill="none" stroke-linecap="butt">
<path stroke="#ceedf4" vector-effect="non-scaling-stroke" d="
  M 501.09 385.49
  Q 501.11 385.63 500.38 385.69
  Q 500.04 385.71 499.73 385.57
  Q 482.08 377.28 464.35 374.59
  Q 455.19 373.20 445.24 372.72
  A 1.19 1.18 -84.6 0 0 444.02 373.74
  Q 440.88 396.83 443.74 418.93
  A 0.54 0.54 0.0 0 1 443.05 419.52
  C 421.54 412.99 396.24 415.68 375.35 423.79
  A 0.93 0.92 77.1 0 0 374.77 424.72
  Q 377.50 458.86 395.30 486.98"
/>
<path stroke="#f6b786" vector-effect="non-scaling-stroke" d="
  M 395.30 486.98
  Q 401.65 496.77 409.49 506.00
  Q 429.26 529.27 454.26 544.48
  Q 467.12 552.31 479.72 554.95
  Q 502.72 559.77 526.49 553.92
  Q 529.95 553.07 533.17 551.66"
/>
<path stroke="#aabc9b" vector-effect="non-scaling-stroke" d="
  M 533.17 551.66
  L 533.46 554.18"
/>
<path stroke="#fdd188" vector-effect="non-scaling-stroke" d="
  M 533.46 554.18
  Q 530.47 555.39 527.42 556.60
  C 503.14 566.26 475.74 563.22 453.58 549.83
  C 437.90 540.35 424.16 527.90 411.55 514.21
  A 1.75 1.74 -20.7 0 0 410.28 513.64
  Q 392.39 513.43 374.05 518.40
  Q 372.93 518.70 373.67 519.59
  Q 389.89 539.07 411.37 555.33
  Q 426.04 566.44 439.72 572.02
  C 462.14 581.15 487.68 580.89 510.73 573.00
  Q 525.96 567.79 538.38 557.26"
/>
<path stroke="#aabc9b" vector-effect="non-scaling-stroke" d="
  M 538.38 557.26
  L 543.28 554.24
  Q 543.66 554.01 543.77 554.44
  Q 543.80 554.57 543.80 554.77"
/>
<path stroke="#9dcea9" vector-effect="non-scaling-stroke" d="
  M 543.80 554.77
  L 541.46 556.44
  A 1.10 1.10 0.0 0 0 541.38 558.17
  C 560.53 574.58 584.14 579.86 608.73 578.61
  Q 634.32 577.30 655.16 564.22
  Q 683.60 546.37 705.08 520.52
  A 1.00 0.99 -61.7 0 0 704.61 518.93
  Q 686.82 513.54 669.30 514.37
  Q 668.13 514.42 667.34 515.26
  Q 650.44 533.04 632.25 545.85
  C 608.11 562.86 577.91 567.82 550.04 556.93
  Q 546.84 555.68 545.00 554.05"
/>
<path stroke="#aabc9b" vector-effect="non-scaling-stroke" d="
  M 545.00 554.05
  Q 546.37 552.91 548.08 553.40"
/>
<path stroke="#c0d9a0" vector-effect="non-scaling-stroke" d="
  M 548.08 553.40
  Q 553.56 555.50 560.75 556.39
  Q 579.43 558.70 595.92 555.83
  Q 606.55 553.97 614.81 550.21
  Q 629.07 543.72 643.76 531.64
  C 659.36 518.82 672.74 505.50 684.40 488.81
  Q 684.47 488.70 684.49 488.57
  Q 684.50 488.39 684.50 488.28"
/>
<path stroke="#e3e98c" vector-effect="non-scaling-stroke" d="
  M 684.50 488.28
  Q 685.80 486.77 686.16 486.16
  C 697.11 467.57 702.97 447.04 705.49 425.78
  A 2.19 2.19 0.0 0 0 704.11 423.49
  Q 674.65 412.03 643.50 417.70
  Q 641.03 418.15 636.37 420.08"
/>
<path stroke="#c0d9a0" vector-effect="non-scaling-stroke" d="
  M 636.37 420.08
  Q 638.56 401.27 637.16 382.51
  Q 636.80 377.63 636.08 373.76
  Q 635.94 373.04 635.22 373.06
  Q 606.83 373.62 581.67 385.48
  A 0.79 0.78 63.6 0 1 580.64 385.13
  C 570.80 366.17 557.48 351.24 541.28 337.74
  A 1.34 1.34 0.0 0 0 539.56 337.74
  Q 515.95 357.12 501.09 385.49"
/>
<path stroke="#a3c32c" vector-effect="non-scaling-stroke" d="
  M 636.37 420.08
  L 632.16 438.38
  Q 632.03 438.95 632.50 439.29
  L 633.69 440.16"
/>
<path stroke="#c0d9a0" vector-effect="non-scaling-stroke" d="
  M 633.69 440.16
  Q 631.62 440.39 630.80 442.53
  Q 626.84 452.90 622.86 460.07
  C 613.81 476.36 601.85 491.73 587.72 503.95
  Q 583.54 507.56 579.85 510.97
  Q 578.45 512.26 579.51 510.68
  Q 582.19 506.67 584.99 502.57
  Q 588.69 497.16 593.18 488.72
  C 604.99 466.53 612.84 441.61 616.66 417.25
  Q 618.60 404.88 618.49 392.72
  A 0.45 0.45 0.0 0 0 617.92 392.29
  Q 603.47 396.41 590.10 403.11
  Q 589.76 403.28 589.68 403.65
  Q 589.64 403.83 589.59 404.00"
/>
<path stroke="#a3c32c" vector-effect="non-scaling-stroke" d="
  M 589.59 404.00
  L 582.25 387.62
  A 1.93 1.92 -26.1 0 0 579.58 386.71
  Q 572.78 390.36 566.05 395.49
  Q 565.61 395.83 565.85 396.33
  Q 570.05 405.26 573.09 415.01
  Q 573.19 415.09 573.06 415.24"
/>
<path stroke="#c0d9a0" vector-effect="non-scaling-stroke" d="
  M 573.06 415.24
  Q 572.64 415.19 572.37 415.38
  Q 561.84 422.55 552.57 431.33"
/>
<path stroke="#8fc795" vector-effect="non-scaling-stroke" d="
  M 552.57 431.33
  C 552.06 431.09 551.61 430.89 551.28 430.43
  Q 546.09 423.15 540.27 416.61
  Q 540.17 416.49 540.16 416.33
  Q 540.16 416.15 540.26 416.00"
/>
<path stroke="#c0d9a0" vector-effect="non-scaling-stroke" d="
  M 540.26 416.00
  Q 551.86 405.54 564.84 396.53
  Q 565.30 396.21 565.02 395.72
  Q 554.96 378.53 541.38 364.51
  A 0.61 0.60 -45.0 0 0 540.51 364.52
  C 531.39 374.06 524.75 383.25 517.49 395.78"
/>
<path stroke="#8fc795" vector-effect="non-scaling-stroke" d="
  M 517.49 395.78
  L 501.09 385.49"
/>
<path stroke="#e3e98c" vector-effect="non-scaling-stroke" d="
  M 589.59 404.00
  C 589.83 404.66 589.78 405.54 590.03 406.21
  Q 595.52 420.78 597.19 436.32
  Q 600.54 467.40 587.07 492.29
  C 583.38 499.11 580.00 505.41 575.06 511.53
  Q 573.85 513.03 569.81 515.84"
/>
<path stroke="#8ea627" vector-effect="non-scaling-stroke" d="
  M 569.81 515.84
  L 572.65 503.07"
/>
<path stroke="#e3e98c" vector-effect="non-scaling-stroke" d="
  M 572.65 503.07
  Q 575.56 492.10 576.44 487.00
  Q 580.17 465.24 578.88 446.08
  Q 577.93 431.90 573.06 415.24"
/>
<path stroke="#aabc9b" vector-effect="non-scaling-stroke" d="
  M 572.65 503.07
  Q 574.60 481.57 568.63 460.58
  Q 566.49 453.02 562.59 447.66"
/>
<path stroke="#ceedf4" vector-effect="non-scaling-stroke" d="
  M 540.26 416.00
  Q 540.12 415.98 539.97 415.97
  Q 539.69 415.95 539.51 415.74
  Q 529.63 404.58 517.49 395.78"
/>
<path stroke="#a3c32c" vector-effect="non-scaling-stroke" d="
  M 684.50 488.28
  Q 683.93 487.59 683.56 487.44"
/>
<path stroke="#e3e98c" vector-effect="non-scaling-stroke" d="
  M 683.56 487.44
  Q 681.00 485.14 677.75 484.93
  A 1.65 1.63 -57.1 0 0 676.81 485.14
  L 668.08 490.18"
/>
<path stroke="#a3c32c" vector-effect="non-scaling-stroke" d="
  M 668.08 490.18
  Q 667.48 489.72 667.27 490.09"
/>
<path stroke="#ceedf4" vector-effect="non-scaling-stroke" d="
  M 552.57 431.33
  Q 552.14 431.84 552.43 432.25
  Q 557.67 439.79 562.59 447.66"
/>
<path stroke="#79aa90" vector-effect="non-scaling-stroke" d="
  M 562.59 447.66
  Q 561.27 448.69 557.00 451.78
  Q 551.80 455.54 546.55 461.41"
/>
<path stroke="#ceedf4" vector-effect="non-scaling-stroke" d="
  M 546.55 461.41
  Q 546.37 460.89 545.97 460.49
  Q 545.52 460.02 545.29 459.41
  Q 540.99 447.96 533.18 437.66
  Q 522.99 424.20 508.88 413.67
  Q 508.48 413.37 508.10 413.08"
/>
<path stroke="#66b2cb" vector-effect="non-scaling-stroke" d="
  M 508.10 413.08
  L 491.78 402.86"
/>
<path stroke="#ceedf4" vector-effect="non-scaling-stroke" d="
  M 491.78 402.86
  Q 479.09 395.33 464.28 391.33
  Q 463.23 391.05 462.12 391.04
  A 0.30 0.29 0.0 0 0 461.82 391.33
  Q 461.76 412.60 465.57 430.73
  C 469.32 448.57 475.60 467.12 484.30 483.54
  Q 490.89 495.98 498.54 507.39
  Q 499.40 508.67 498.10 507.82
  Q 472.12 490.80 458.30 463.36
  Q 452.74 452.33 448.63 440.65
  Q 448.47 440.20 448.03 440.03
  Q 433.28 434.34 417.44 433.85
  Q 405.23 433.48 394.21 434.26
  A 0.46 0.46 0.0 0 0 393.79 434.82
  Q 400.78 466.18 422.45 487.74
  Q 422.89 488.18 422.93 488.77
  A 0.56 0.56 0.0 0 1 422.34 489.37
  Q 418.44 489.16 414.93 488.34
  C 413.64 488.03 411.23 488.61 410.49 488.30
  Q 407.17 486.93 404.45 487.46"
/>
<path stroke="#c5a57b" vector-effect="non-scaling-stroke" d="
  M 404.45 487.46
  L 395.30 486.98"
/>
<path stroke="#e3e98c" vector-effect="non-scaling-stroke" d="
  M 633.69 440.16
  C 650.70 435.46 667.75 432.90 685.21 434.52
  Q 686.10 434.60 685.92 435.48
  C 681.57 456.06 672.27 472.69 658.67 488.11
  Q 658.08 488.77 658.27 489.63
  A 0.75 0.74 78.6 0 0 659.14 490.21
  Q 662.27 489.64 665.51 489.13
  Q 666.61 488.95 667.61 489.12
  Q 668.37 489.24 667.76 489.72
  L 667.27 490.09"
/>
<path stroke="#c0d9a0" vector-effect="non-scaling-stroke" d="
  M 667.27 490.09
  Q 638.54 492.89 618.50 498.02
  Q 605.58 501.33 595.83 505.83
  Q 582.65 511.91 567.73 521.74"
/>
<path stroke="#aabc9b" vector-effect="non-scaling-stroke" d="
  M 567.73 521.74
  Q 568.19 518.24 569.81 515.84"
/>
<path stroke="#6b963b" vector-effect="non-scaling-stroke" d="
  M 567.73 521.74
  L 560.96 537.46"
/>
<path stroke="#aabc9b" vector-effect="non-scaling-stroke" d="
  M 560.96 537.46
  Q 558.60 538.54 557.71 540.73"
/>
<path stroke="#6b963b" vector-effect="non-scaling-stroke" d="
  M 557.71 540.73
  Q 553.65 544.02 551.66 548.88
  Q 551.30 549.75 548.65 551.42
  Q 548.52 551.51 548.44 551.64
  Q 548.40 551.70 548.43 551.77
  Q 548.54 552.10 548.20 552.40
  Q 547.96 552.61 548.08 553.40"
/>
<path stroke="#488a45" vector-effect="non-scaling-stroke" d="
  M 545.00 554.05
  Q 544.74 553.95 544.48 553.96
  Q 544.11 553.97 544.03 554.33
  Q 543.98 554.57 543.80 554.77"
/>
<path stroke="#a88e23" vector-effect="non-scaling-stroke" d="
  M 538.38 557.26
  Q 538.20 556.61 537.56 556.14
  Q 537.12 555.83 537.12 555.29
  L 537.12 554.71
  Q 537.12 554.04 536.46 554.13
  C 535.77 554.23 535.42 554.67 534.65 554.66
  Q 533.82 554.65 533.46 554.18"
/>
<path stroke="#a17321" vector-effect="non-scaling-stroke" d="
  M 533.17 551.66
  C 537.17 545.12 539.56 538.46 542.31 531.24
  C 546.87 519.25 548.72 506.80 549.42 492.75
  Q 550.23 476.63 545.94 462.50"
/>
<path stroke="#c0d9a0" vector-effect="non-scaling-stroke" d="
  M 683.56 487.44
  L 679.35 486.02
  A 2.71 2.71 0.0 0 0 676.65 486.60
  Q 670.43 492.32 663.97 496.25
  Q 651.50 503.83 637.47 509.80
  C 623.79 515.62 608.24 520.89 593.85 526.55
  Q 583.50 530.63 573.66 534.57
  Q 565.79 537.73 557.71 540.73"
/>
<path stroke="#c0d9a0" vector-effect="non-scaling-stroke" d="
  M 560.96 537.46
  C 566.32 535.21 571.35 532.66 576.60 530.45
  Q 598.97 521.02 622.01 512.74
  Q 643.78 504.91 664.20 493.46
  Q 666.18 492.36 668.08 490.18"
/>
<path stroke="#97c4d6" vector-effect="non-scaling-stroke" d="
  M 491.78 402.86
  Q 489.65 407.29 487.72 413.26
  C 479.69 438.11 479.07 463.25 490.11 486.81
  Q 494.26 495.66 501.16 506.17
  C 505.25 512.40 510.17 517.38 515.16 522.81
  Q 515.67 523.37 515.70 522.61
  Q 515.73 522.07 515.46 521.57
  Q 512.77 516.69 510.26 511.88
  Q 504.98 501.81 501.76 486.12
  C 497.01 463.04 498.49 436.57 507.88 414.47
  Q 508.06 414.05 508.10 413.08"
/>
<path stroke="#aabc9b" vector-effect="non-scaling-stroke" d="
  M 546.55 461.41
  Q 545.97 462.21 545.94 462.50"
/>
<path stroke="#f6b786" vector-effect="non-scaling-stroke" d="
  M 545.94 462.50
  Q 536.38 472.16 530.68 483.66
  Q 526.10 492.91 524.08 499.92
  C 521.16 510.03 522.03 520.09 524.15 530.82
  Q 524.35 531.81 523.60 531.13
  L 516.76 525.03
  Q 516.45 524.75 516.03 524.67
  Q 515.12 524.49 514.45 523.91
  C 493.50 505.54 466.95 496.58 440.13 493.51
  Q 425.87 491.87 413.82 489.61
  Q 410.62 489.00 413.33 490.82
  C 421.82 496.51 430.83 501.30 440.32 505.19
  Q 455.98 511.60 474.11 518.34
  C 490.43 524.41 504.22 530.58 520.61 538.65
  Q 528.67 542.62 533.14 545.42
  Q 533.23 545.48 533.20 545.52
  L 532.99 545.78
  Q 532.87 545.93 532.69 545.85
  Q 518.05 539.68 502.95 533.11
  C 484.18 524.93 463.26 517.79 443.58 509.61
  C 429.49 503.75 416.54 497.20 404.45 487.46"
/>
<path stroke="#9dcea9" vector-effect="non-scaling-stroke" d="
  M 684.46 498.36
  A 0.63 0.63 0.0 0 0 683.42 497.67
  L 672.34 509.52
  A 0.63 0.63 0.0 0 0 673.09 510.51
  L 680.71 506.53
  A 0.63 0.63 0.0 0 0 681.00 506.23
  L 684.46 498.36"
/>
<path stroke="#fdd188" vector-effect="non-scaling-stroke" d="
  M 402.50 508.78
  A 1.32 1.32 0.0 0 0 403.70 509.31
  L 405.45 509.11
  A 1.32 1.32 0.0 0 0 406.33 506.97
  L 399.40 498.36
  A 1.32 1.32 0.0 0 0 398.24 497.87
  L 396.94 497.99
  A 1.32 1.32 0.0 0 0 396.01 500.10
  L 402.50 508.78"
/>
</g>
<path fill="#ffffff" d="
  M 0.00 0.00
  L 1080.00 0.00
  L 1080.00 1080.00
  L 0.00 1080.00
  L 0.00 0.00
  Z
  M 501.09 385.49
  Q 501.11 385.63 500.38 385.69
  Q 500.04 385.71 499.73 385.57
  Q 482.08 377.28 464.35 374.59
  Q 455.19 373.20 445.24 372.72
  A 1.19 1.18 -84.6 0 0 444.02 373.74
  Q 440.88 396.83 443.74 418.93
  A 0.54 0.54 0.0 0 1 443.05 419.52
  C 421.54 412.99 396.24 415.68 375.35 423.79
  A 0.93 0.92 77.1 0 0 374.77 424.72
  Q 377.50 458.86 395.30 486.98
  Q 401.65 496.77 409.49 506.00
  Q 429.26 529.27 454.26 544.48
  Q 467.12 552.31 479.72 554.95
  Q 502.72 559.77 526.49 553.92
  Q 529.95 553.07 533.17 551.66
  L 533.46 554.18
  Q 530.47 555.39 527.42 556.60
  C 503.14 566.26 475.74 563.22 453.58 549.83
  C 437.90 540.35 424.16 527.90 411.55 514.21
  A 1.75 1.74 -20.7 0 0 410.28 513.64
  Q 392.39 513.43 374.05 518.40
  Q 372.93 518.70 373.67 519.59
  Q 389.89 539.07 411.37 555.33
  Q 426.04 566.44 439.72 572.02
  C 462.14 581.15 487.68 580.89 510.73 573.00
  Q 525.96 567.79 538.38 557.26
  L 543.28 554.24
  Q 543.66 554.01 543.77 554.44
  Q 543.80 554.57 543.80 554.77
  L 541.46 556.44
  A 1.10 1.10 0.0 0 0 541.38 558.17
  C 560.53 574.58 584.14 579.86 608.73 578.61
  Q 634.32 577.30 655.16 564.22
  Q 683.60 546.37 705.08 520.52
  A 1.00 0.99 -61.7 0 0 704.61 518.93
  Q 686.82 513.54 669.30 514.37
  Q 668.13 514.42 667.34 515.26
  Q 650.44 533.04 632.25 545.85
  C 608.11 562.86 577.91 567.82 550.04 556.93
  Q 546.84 555.68 545.00 554.05
  Q 546.37 552.91 548.08 553.40
  Q 553.56 555.50 560.75 556.39
  Q 579.43 558.70 595.92 555.83
  Q 606.55 553.97 614.81 550.21
  Q 629.07 543.72 643.76 531.64
  C 659.36 518.82 672.74 505.50 684.40 488.81
  Q 684.47 488.70 684.49 488.57
  Q 684.50 488.39 684.50 488.28
  Q 685.80 486.77 686.16 486.16
  C 697.11 467.57 702.97 447.04 705.49 425.78
  A 2.19 2.19 0.0 0 0 704.11 423.49
  Q 674.65 412.03 643.50 417.70
  Q 641.03 418.15 636.37 420.08
  Q 638.56 401.27 637.16 382.51
  Q 636.80 377.63 636.08 373.76
  Q 635.94 373.04 635.22 373.06
  Q 606.83 373.62 581.67 385.48
  A 0.79 0.78 63.6 0 1 580.64 385.13
  C 570.80 366.17 557.48 351.24 541.28 337.74
  A 1.34 1.34 0.0 0 0 539.56 337.74
  Q 515.95 357.12 501.09 385.49
  Z
  M 684.46 498.36
  A 0.63 0.63 0.0 0 0 683.42 497.67
  L 672.34 509.52
  A 0.63 0.63 0.0 0 0 673.09 510.51
  L 680.71 506.53
  A 0.63 0.63 0.0 0 0 681.00 506.23
  L 684.46 498.36
  Z
  M 402.50 508.78
  A 1.32 1.32 0.0 0 0 403.70 509.31
  L 405.45 509.11
  A 1.32 1.32 0.0 0 0 406.33 506.97
  L 399.40 498.36
  A 1.32 1.32 0.0 0 0 398.24 497.87
  L 396.94 497.99
  A 1.32 1.32 0.0 0 0 396.01 500.10
  L 402.50 508.78
  Z"
/>
<path fill="#80b340" d="
  M 636.37 420.08
  L 632.16 438.38
  Q 632.03 438.95 632.50 439.29
  L 633.69 440.16
  Q 631.62 440.39 630.80 442.53
  Q 626.84 452.90 622.86 460.07
  C 613.81 476.36 601.85 491.73 587.72 503.95
  Q 583.54 507.56 579.85 510.97
  Q 578.45 512.26 579.51 510.68
  Q 582.19 506.67 584.99 502.57
  Q 588.69 497.16 593.18 488.72
  C 604.99 466.53 612.84 441.61 616.66 417.25
  Q 618.60 404.88 618.49 392.72
  A 0.45 0.45 0.0 0 0 617.92 392.29
  Q 603.47 396.41 590.10 403.11
  Q 589.76 403.28 589.68 403.65
  Q 589.64 403.83 589.59 404.00
  L 582.25 387.62
  A 1.93 1.92 -26.1 0 0 579.58 386.71
  Q 572.78 390.36 566.05 395.49
  Q 565.61 395.83 565.85 396.33
  Q 570.05 405.26 573.09 415.01
  Q 573.19 415.09 573.06 415.24
  Q 572.64 415.19 572.37 415.38
  Q 561.84 422.55 552.57 431.33
  C 552.06 431.09 551.61 430.89 551.28 430.43
  Q 546.09 423.15 540.27 416.61
  Q 540.17 416.49 540.16 416.33
  Q 540.16 416.15 540.26 416.00
  Q 551.86 405.54 564.84 396.53
  Q 565.30 396.21 565.02 395.72
  Q 554.96 378.53 541.38 364.51
  A 0.61 0.60 -45.0 0 0 540.51 364.52
  C 531.39 374.06 524.75 383.25 517.49 395.78
  L 501.09 385.49
  Q 515.95 357.12 539.56 337.74
  A 1.34 1.34 0.0 0 1 541.28 337.74
  C 557.48 351.24 570.80 366.17 580.64 385.13
  A 0.79 0.78 63.6 0 0 581.67 385.48
  Q 606.83 373.62 635.22 373.06
  Q 635.94 373.04 636.08 373.76
  Q 636.80 377.63 637.16 382.51
  Q 638.56 401.27 636.37 420.08
  Z"
/>
<path fill="#ffffff" d="
  M 540.26 416.00
  Q 540.12 415.98 539.97 415.97
  Q 539.69 415.95 539.51 415.74
  Q 529.63 404.58 517.49 395.78
  C 524.75 383.25 531.39 374.06 540.51 364.52
  A 0.61 0.60 -45.0 0 1 541.38 364.51
  Q 554.96 378.53 565.02 395.72
  Q 565.30 396.21 564.84 396.53
  Q 551.86 405.54 540.26 416.00
  Z"
/>
<path fill="#9ddbe9" d="
  M 501.09 385.49
  L 517.49 395.78
  Q 529.63 404.58 539.51 415.74
  Q 539.69 415.95 539.97 415.97
  Q 540.12 415.98 540.26 416.00
  Q 540.16 416.15 540.16 416.33
  Q 540.17 416.49 540.27 416.61
  Q 546.09 423.15 551.28 430.43
  C 551.61 430.89 552.06 431.09 552.57 431.33
  Q 552.14 431.84 552.43 432.25
  Q 557.67 439.79 562.59 447.66
  Q 561.27 448.69 557.00 451.78
  Q 551.80 455.54 546.55 461.41
  Q 546.37 460.89 545.97 460.49
  Q 545.52 460.02 545.29 459.41
  Q 540.99 447.96 533.18 437.66
  Q 522.99 424.20 508.88 413.67
  Q 508.48 413.37 508.10 413.08
  L 491.78 402.86
  Q 479.09 395.33 464.28 391.33
  Q 463.23 391.05 462.12 391.04
  A 0.30 0.29 0.0 0 0 461.82 391.33
  Q 461.76 412.60 465.57 430.73
  C 469.32 448.57 475.60 467.12 484.30 483.54
  Q 490.89 495.98 498.54 507.39
  Q 499.40 508.67 498.10 507.82
  Q 472.12 490.80 458.30 463.36
  Q 452.74 452.33 448.63 440.65
  Q 448.47 440.20 448.03 440.03
  Q 433.28 434.34 417.44 433.85
  Q 405.23 433.48 394.21 434.26
  A 0.46 0.46 0.0 0 0 393.79 434.82
  Q 400.78 466.18 422.45 487.74
  Q 422.89 488.18 422.93 488.77
  A 0.56 0.56 0.0 0 1 422.34 489.37
  Q 418.44 489.16 414.93 488.34
  C 413.64 488.03 411.23 488.61 410.49 488.30
  Q 407.17 486.93 404.45 487.46
  L 395.30 486.98
  Q 377.50 458.86 374.77 424.72
  A 0.93 0.92 77.1 0 1 375.35 423.79
  C 396.24 415.68 421.54 412.99 443.05 419.52
  A 0.54 0.54 0.0 0 0 443.74 418.93
  Q 440.88 396.83 444.02 373.74
  A 1.19 1.18 -84.6 0 1 445.24 372.72
  Q 455.19 373.20 464.35 374.59
  Q 482.08 377.28 499.73 385.57
  Q 500.04 385.71 500.38 385.69
  Q 501.11 385.63 501.09 385.49
  Z"
/>
<path fill="#c6d318" d="
  M 589.59 404.00
  C 589.83 404.66 589.78 405.54 590.03 406.21
  Q 595.52 420.78 597.19 436.32
  Q 600.54 467.40 587.07 492.29
  C 583.38 499.11 580.00 505.41 575.06 511.53
  Q 573.85 513.03 569.81 515.84
  L 572.65 503.07
  Q 575.56 492.10 576.44 487.00
  Q 580.17 465.24 578.88 446.08
  Q 577.93 431.90 573.06 415.24
  Q 573.19 415.09 573.09 415.01
  Q 570.05 405.26 565.85 396.33
  Q 565.61 395.83 566.05 395.49
  Q 572.78 390.36 579.58 386.71
  A 1.93 1.92 -26.1 0 1 582.25 387.62
  L 589.59 404.00
  Z"
/>
<path fill="#ffffff" d="
  M 491.78 402.86
  Q 489.65 407.29 487.72 413.26
  C 479.69 438.11 479.07 463.25 490.11 486.81
  Q 494.26 495.66 501.16 506.17
  C 505.25 512.40 510.17 517.38 515.16 522.81
  Q 515.67 523.37 515.70 522.61
  Q 515.73 522.07 515.46 521.57
  Q 512.77 516.69 510.26 511.88
  Q 504.98 501.81 501.76 486.12
  C 497.01 463.04 498.49 436.57 507.88 414.47
  Q 508.06 414.05 508.10 413.08
  Q 508.48 413.37 508.88 413.67
  Q 522.99 424.20 533.18 437.66
  Q 540.99 447.96 545.29 459.41
  Q 545.52 460.02 545.97 460.49
  Q 546.37 460.89 546.55 461.41
  Q 545.97 462.21 545.94 462.50
  Q 536.38 472.16 530.68 483.66
  Q 526.10 492.91 524.08 499.92
  C 521.16 510.03 522.03 520.09 524.15 530.82
  Q 524.35 531.81 523.60 531.13
  L 516.76 525.03
  Q 516.45 524.75 516.03 524.67
  Q 515.12 524.49 514.45 523.91
  C 493.50 505.54 466.95 496.58 440.13 493.51
  Q 425.87 491.87 413.82 489.61
  Q 410.62 489.00 413.33 490.82
  C 421.82 496.51 430.83 501.30 440.32 505.19
  Q 455.98 511.60 474.11 518.34
  C 490.43 524.41 504.22 530.58 520.61 538.65
  Q 528.67 542.62 533.14 545.42
  Q 533.23 545.48 533.20 545.52
  L 532.99 545.78
  Q 532.87 545.93 532.69 545.85
  Q 518.05 539.68 502.95 533.11
  C 484.18 524.93 463.26 517.79 443.58 509.61
  C 429.49 503.75 416.54 497.20 404.45 487.46
  Q 407.17 486.93 410.49 488.30
  C 411.23 488.61 413.64 488.03 414.93 488.34
  Q 418.44 489.16 422.34 489.37
  A 0.56 0.56 0.0 0 0 422.93 488.77
  Q 422.89 488.18 422.45 487.74
  Q 400.78 466.18 393.79 434.82
  A 0.46 0.46 0.0 0 1 394.21 434.26
  Q 405.23 433.48 417.44 433.85
  Q 433.28 434.34 448.03 440.03
  Q 448.47 440.20 448.63 440.65
  Q 452.74 452.33 458.30 463.36
  Q 472.12 490.80 498.10 507.82
  Q 499.40 508.67 498.54 507.39
  Q 490.89 495.98 484.30 483.54
  C 475.60 467.12 469.32 448.57 465.57 430.73
  Q 461.76 412.60 461.82 391.33
  A 0.30 0.29 0.0 0 1 462.12 391.04
  Q 463.23 391.05 464.28 391.33
  Q 479.09 395.33 491.78 402.86
  Z"
/>
<path fill="#ffffff" d="
  M 633.69 440.16
  C 650.70 435.46 667.75 432.90 685.21 434.52
  Q 686.10 434.60 685.92 435.48
  C 681.57 456.06 672.27 472.69 658.67 488.11
  Q 658.08 488.77 658.27 489.63
  A 0.75 0.74 78.6 0 0 659.14 490.21
  Q 662.27 489.64 665.51 489.13
  Q 666.61 488.95 667.61 489.12
  Q 668.37 489.24 667.76 489.72
  L 667.27 490.09
  Q 638.54 492.89 618.50 498.02
  Q 605.58 501.33 595.83 505.83
  Q 582.65 511.91 567.73 521.74
  Q 568.19 518.24 569.81 515.84
  Q 573.85 513.03 575.06 511.53
  C 580.00 505.41 583.38 499.11 587.07 492.29
  Q 600.54 467.40 597.19 436.32
  Q 595.52 420.78 590.03 406.21
  C 589.78 405.54 589.83 404.66 589.59 404.00
  Q 589.64 403.83 589.68 403.65
  Q 589.76 403.28 590.10 403.11
  Q 603.47 396.41 617.92 392.29
  A 0.45 0.45 0.0 0 1 618.49 392.72
  Q 618.60 404.88 616.66 417.25
  C 612.84 441.61 604.99 466.53 593.18 488.72
  Q 588.69 497.16 584.99 502.57
  Q 582.19 506.67 579.51 510.68
  Q 578.45 512.26 579.85 510.97
  Q 583.54 507.56 587.72 503.95
  C 601.85 491.73 613.81 476.36 622.86 460.07
  Q 626.84 452.90 630.80 442.53
  Q 631.62 440.39 633.69 440.16
  Z"
/>
<path fill="#2f88ad" d="
  M 491.78 402.86
  L 508.10 413.08
  Q 508.06 414.05 507.88 414.47
  C 498.49 436.57 497.01 463.04 501.76 486.12
  Q 504.98 501.81 510.26 511.88
  Q 512.77 516.69 515.46 521.57
  Q 515.73 522.07 515.70 522.61
  Q 515.67 523.37 515.16 522.81
  C 510.17 517.38 505.25 512.40 501.16 506.17
  Q 494.26 495.66 490.11 486.81
  C 479.07 463.25 479.69 438.11 487.72 413.26
  Q 489.65 407.29 491.78 402.86
  Z"
/>
<path fill="#ffffff" d="
  M 573.06 415.24
  Q 577.93 431.90 578.88 446.08
  Q 580.17 465.24 576.44 487.00
  Q 575.56 492.10 572.65 503.07
  Q 574.60 481.57 568.63 460.58
  Q 566.49 453.02 562.59 447.66
  Q 557.67 439.79 552.43 432.25
  Q 552.14 431.84 552.57 431.33
  Q 561.84 422.55 572.37 415.38
  Q 572.64 415.19 573.06 415.24
  Z"
/>
<path fill="#c6d318" d="
  M 684.50 488.28
  Q 683.93 487.59 683.56 487.44
  Q 681.00 485.14 677.75 484.93
  A 1.65 1.63 -57.1 0 0 676.81 485.14
  L 668.08 490.18
  Q 667.48 489.72 667.27 490.09
  L 667.76 489.72
  Q 668.37 489.24 667.61 489.12
  Q 666.61 488.95 665.51 489.13
  Q 662.27 489.64 659.14 490.21
  A 0.75 0.74 78.6 0 1 658.27 489.63
  Q 658.08 488.77 658.67 488.11
  C 672.27 472.69 681.57 456.06 685.92 435.48
  Q 686.10 434.60 685.21 434.52
  C 667.75 432.90 650.70 435.46 633.69 440.16
  L 632.50 439.29
  Q 632.03 438.95 632.16 438.38
  L 636.37 420.08
  Q 641.03 418.15 643.50 417.70
  Q 674.65 412.03 704.11 423.49
  A 2.19 2.19 0.0 0 1 705.49 425.78
  C 702.97 447.04 697.11 467.57 686.16 486.16
  Q 685.80 486.77 684.50 488.28
  Z"
/>
<path fill="#557836" d="
  M 562.59 447.66
  Q 566.49 453.02 568.63 460.58
  Q 574.60 481.57 572.65 503.07
  L 569.81 515.84
  Q 568.19 518.24 567.73 521.74
  L 560.96 537.46
  Q 558.60 538.54 557.71 540.73
  Q 553.65 544.02 551.66 548.88
  Q 551.30 549.75 548.65 551.42
  Q 548.52 551.51 548.44 551.64
  Q 548.40 551.70 548.43 551.77
  Q 548.54 552.10 548.20 552.40
  Q 547.96 552.61 548.08 553.40
  Q 546.37 552.91 545.00 554.05
  Q 544.74 553.95 544.48 553.96
  Q 544.11 553.97 544.03 554.33
  Q 543.98 554.57 543.80 554.77
  Q 543.80 554.57 543.77 554.44
  Q 543.66 554.01 543.28 554.24
  L 538.38 557.26
  Q 538.20 556.61 537.56 556.14
  Q 537.12 555.83 537.12 555.29
  L 537.12 554.71
  Q 537.12 554.04 536.46 554.13
  C 535.77 554.23 535.42 554.67 534.65 554.66
  Q 533.82 554.65 533.46 554.18
  L 533.17 551.66
  C 537.17 545.12 539.56 538.46 542.31 531.24
  C 546.87 519.25 548.72 506.80 549.42 492.75
  Q 550.23 476.63 545.94 462.50
  Q 545.97 462.21 546.55 461.41
  Q 551.80 455.54 557.00 451.78
  Q 561.27 448.69 562.59 447.66
  Z"
/>
<path fill="#ed6e0c" d="
  M 545.94 462.50
  Q 550.23 476.63 549.42 492.75
  C 548.72 506.80 546.87 519.25 542.31 531.24
  C 539.56 538.46 537.17 545.12 533.17 551.66
  Q 529.95 553.07 526.49 553.92
  Q 502.72 559.77 479.72 554.95
  Q 467.12 552.31 454.26 544.48
  Q 429.26 529.27 409.49 506.00
  Q 401.65 496.77 395.30 486.98
  L 404.45 487.46
  C 416.54 497.20 429.49 503.75 443.58 509.61
  C 463.26 517.79 484.18 524.93 502.95 533.11
  Q 518.05 539.68 532.69 545.85
  Q 532.87 545.93 532.99 545.78
  L 533.20 545.52
  Q 533.23 545.48 533.14 545.42
  Q 528.67 542.62 520.61 538.65
  C 504.22 530.58 490.43 524.41 474.11 518.34
  Q 455.98 511.60 440.32 505.19
  C 430.83 501.30 421.82 496.51 413.33 490.82
  Q 410.62 489.00 413.82 489.61
  Q 425.87 491.87 440.13 493.51
  C 466.95 496.58 493.50 505.54 514.45 523.91
  Q 515.12 524.49 516.03 524.67
  Q 516.45 524.75 516.76 525.03
  L 523.60 531.13
  Q 524.35 531.81 524.15 530.82
  C 522.03 520.09 521.16 510.03 524.08 499.92
  Q 526.10 492.91 530.68 483.66
  Q 536.38 472.16 545.94 462.50
  Z"
/>
<path fill="#ffffff" d="
  M 683.56 487.44
  L 679.35 486.02
  A 2.71 2.71 0.0 0 0 676.65 486.60
  Q 670.43 492.32 663.97 496.25
  Q 651.50 503.83 637.47 509.80
  C 623.79 515.62 608.24 520.89 593.85 526.55
  Q 583.50 530.63 573.66 534.57
  Q 565.79 537.73 557.71 540.73
  Q 558.60 538.54 560.96 537.46
  C 566.32 535.21 571.35 532.66 576.60 530.45
  Q 598.97 521.02 622.01 512.74
  Q 643.78 504.91 664.20 493.46
  Q 666.18 492.36 668.08 490.18
  L 676.81 485.14
  A 1.65 1.63 -57.1 0 1 677.75 484.93
  Q 681.00 485.14 683.56 487.44
  Z"
/>
<path fill="#80b340" d="
  M 683.56 487.44
  Q 683.93 487.59 684.50 488.28
  Q 684.50 488.39 684.49 488.57
  Q 684.47 488.70 684.40 488.81
  C 672.74 505.50 659.36 518.82 643.76 531.64
  Q 629.07 543.72 614.81 550.21
  Q 606.55 553.97 595.92 555.83
  Q 579.43 558.70 560.75 556.39
  Q 553.56 555.50 548.08 553.40
  Q 547.96 552.61 548.20 552.40
  Q 548.54 552.10 548.43 551.77
  Q 548.40 551.70 548.44 551.64
  Q 548.52 551.51 548.65 551.42
  Q 551.30 549.75 551.66 548.88
  Q 553.65 544.02 557.71 540.73
  Q 565.79 537.73 573.66 534.57
  Q 583.50 530.63 593.85 526.55
  C 608.24 520.89 623.79 515.62 637.47 509.80
  Q 651.50 503.83 663.97 496.25
  Q 670.43 492.32 676.65 486.60
  A 2.71 2.71 0.0 0 1 679.35 486.02
  L 683.56 487.44
  Z"
/>
<path fill="#80b340" d="
  M 667.27 490.09
  Q 667.48 489.72 668.08 490.18
  Q 666.18 492.36 664.20 493.46
  Q 643.78 504.91 622.01 512.74
  Q 598.97 521.02 576.60 530.45
  C 571.35 532.66 566.32 535.21 560.96 537.46
  L 567.73 521.74
  Q 582.65 511.91 595.83 505.83
  Q 605.58 501.33 618.50 498.02
  Q 638.54 492.89 667.27 490.09
  Z"
/>
<path fill="#3a9c53" d="
  M 684.46 498.36
  L 681.00 506.23
  A 0.63 0.63 0.0 0 1 680.71 506.53
  L 673.09 510.51
  A 0.63 0.63 0.0 0 1 672.34 509.52
  L 683.42 497.67
  A 0.63 0.63 0.0 0 1 684.46 498.36
  Z"
/>
<path fill="#faa310" d="
  M 402.50 508.78
  L 396.01 500.10
  A 1.32 1.32 0.0 0 1 396.94 497.99
  L 398.24 497.87
  A 1.32 1.32 0.0 0 1 399.40 498.36
  L 406.33 506.97
  A 1.32 1.32 0.0 0 1 405.45 509.11
  L 403.70 509.31
  A 1.32 1.32 0.0 0 1 402.50 508.78
  Z"
/>
<path fill="#faa310" d="
  M 533.46 554.18
  Q 533.82 554.65 534.65 554.66
  C 535.42 554.67 535.77 554.23 536.46 554.13
  Q 537.12 554.04 537.12 554.71
  L 537.12 555.29
  Q 537.12 555.83 537.56 556.14
  Q 538.20 556.61 538.38 557.26
  Q 525.96 567.79 510.73 573.00
  C 487.68 580.89 462.14 581.15 439.72 572.02
  Q 426.04 566.44 411.37 555.33
  Q 389.89 539.07 373.67 519.59
  Q 372.93 518.70 374.05 518.40
  Q 392.39 513.43 410.28 513.64
  A 1.75 1.74 -20.7 0 1 411.55 514.21
  C 424.16 527.90 437.90 540.35 453.58 549.83
  C 475.74 563.22 503.14 566.26 527.42 556.60
  Q 530.47 555.39 533.46 554.18
  Z"
/>
<path fill="#3a9c53" d="
  M 543.80 554.77
  Q 543.98 554.57 544.03 554.33
  Q 544.11 553.97 544.48 553.96
  Q 544.74 553.95 545.00 554.05
  Q 546.84 555.68 550.04 556.93
  C 577.91 567.82 608.11 562.86 632.25 545.85
  Q 650.44 533.04 667.34 515.26
  Q 668.13 514.42 669.30 514.37
  Q 686.82 513.54 704.61 518.93
  A 1.00 0.99 -61.7 0 1 705.08 520.52
  Q 683.60 546.37 655.16 564.22
  Q 634.32 577.30 608.73 578.61
  C 584.14 579.86 560.53 574.58 541.38 558.17
  A 1.10 1.10 0.0 0 1 541.46 556.44
  L 543.80 554.77
  Z"
/>
</svg>
