<?xml version="1.0" encoding="UTF-8" standalone="no"?>
<!DOCTYPE svg PUBLIC "-//W3C//DTD SVG 1.1//EN" "http://www.w3.org/Graphics/SVG/1.1/DTD/svg11.dtd">
<svg xmlns="http://www.w3.org/2000/svg" version="1.1" viewBox="0.00 0.00 1080.00 1080.00">
<g stroke-width="2.00" fill="none" stroke-linecap="butt">
<path stroke="#ceedf4" vector-effect="non-scaling-stroke" d="
  M 501.09 385.49
  Q 501.11 385.63 500.38 385.69
  Q 500.04 385.72 499.72 385.57
  Q 482.11 377.30 464.36 374.59
  Q 455.18 373.19 445.25 372.72
  A 1.19 1.19 0.0 0 0 444.02 373.74
  Q 440.88 396.83 443.74 418.93
  A 0.54 0.54 0.0 0 1 443.05 419.52
  C 421.54 412.99 396.24 415.68 375.35 423.79
  A 0.93 0.92 77.1 0 0 374.77 424.72
  Q 377.50 458.86 395.30 486.98"
/>
<path stroke="#f6b786" vector-effect="non-scaling-stroke" d="
  M 395.30 486.98
  Q 401.62 496.74 409.49 506.00
  Q 428.05 527.85 451.88 543.06
  Q 466.67 552.50 481.51 555.34
  Q 497.80 558.45 515.00 556.10
  Q 525.51 554.66 533.15 551.73"
/>
<path stroke="#aabc9b" vector-effect="non-scaling-stroke" d="
  M 533.15 551.73
  L 533.51 554.04"
/>
<path stroke="#fdd188" vector-effect="non-scaling-stroke" d="
  M 533.51 554.04
  Q 517.72 561.67 500.74 562.22
  Q 483.82 562.76 468.14 556.87
  C 454.36 551.70 441.98 542.84 430.93 533.22
  Q 421.08 524.65 411.62 514.24
  A 1.96 1.95 -21.2 0 0 410.18 513.61
  Q 391.47 513.59 373.85 518.45
  A 0.59 0.58 62.5 0 0 373.56 519.38
  Q 385.92 534.42 401.86 547.75
  C 413.33 557.33 425.33 565.97 438.60 571.54
  Q 463.63 582.04 492.59 577.52
  C 508.72 575.01 522.44 569.43 534.72 560.15
  Q 537.95 557.71 541.16 555.35"
/>
<path stroke="#aabc9b" vector-effect="non-scaling-stroke" d="
  M 541.16 555.35
  Q 543.66 553.61 543.87 554.67"
/>
<path stroke="#9dcda9" vector-effect="non-scaling-stroke" d="
  M 543.87 554.67
  L 541.45 556.46
  A 1.08 1.08 0.0 0 0 541.38 558.15
  C 560.36 574.64 584.13 579.74 608.60 578.61
  Q 635.58 577.37 658.67 562.03
  C 675.87 550.61 692.13 536.50 705.16 520.29
  A 0.81 0.81 0.0 0 0 704.77 519.00
  Q 687.65 513.64 669.26 514.34
  A 2.72 2.70 -69.0 0 0 667.41 515.17
  C 656.91 526.28 645.14 536.75 632.98 545.37
  C 608.23 562.92 577.32 568.16 548.80 556.46
  Q 546.85 555.66 545.05 554.18"
/>
<path stroke="#aabc9b" vector-effect="non-scaling-stroke" d="
  M 545.05 554.18
  Q 545.92 552.92 548.06 553.39"
/>
<path stroke="#c0d9a0" vector-effect="non-scaling-stroke" d="
  M 548.06 553.39
  Q 553.42 555.45 560.50 556.35
  C 581.17 558.96 602.81 557.17 620.73 547.31
  C 635.76 539.04 648.17 528.55 660.87 516.47
  Q 673.42 504.52 684.38 488.85
  Q 684.47 488.72 684.49 488.57
  Q 684.50 488.39 684.50 488.28"
/>
<path stroke="#e3e98c" vector-effect="non-scaling-stroke" d="
  M 684.50 488.28
  Q 685.80 486.77 686.16 486.16
  C 697.11 467.57 702.97 447.04 705.49 425.78
  A 2.19 2.19 0.0 0 0 704.11 423.49
  Q 674.65 412.03 643.50 417.70
  Q 641.03 418.15 636.37 420.08"
/>
<path stroke="#c0d9a0" vector-effect="non-scaling-stroke" d="
  M 636.37 420.08
  Q 638.56 401.27 637.16 382.51
  Q 636.80 377.63 636.08 373.76
  Q 635.94 373.04 635.22 373.06
  Q 606.84 373.62 581.68 385.48
  A 0.81 0.80 -25.9 0 1 580.63 385.12
  C 570.81 366.18 557.50 351.29 541.30 337.74
  A 1.36 1.36 0.0 0 0 539.56 337.73
  Q 515.95 357.12 501.09 385.49"
/>
<path stroke="#a3c32c" vector-effect="non-scaling-stroke" d="
  M 636.37 420.08
  L 632.16 438.38
  Q 632.03 438.95 632.50 439.29
  L 633.69 440.16"
/>
<path stroke="#c0d9a0" vector-effect="non-scaling-stroke" d="
  M 633.69 440.16
  Q 631.62 440.39 630.80 442.53
  Q 626.84 452.90 622.86 460.07
  C 613.81 476.36 601.85 491.73 587.72 503.95
  Q 583.54 507.56 579.85 510.97
  Q 578.45 512.26 579.51 510.68
  Q 582.19 506.67 584.99 502.57
  Q 588.69 497.16 593.18 488.72
  C 604.99 466.53 612.84 441.61 616.66 417.25
  Q 618.60 404.88 618.49 392.72
  A 0.45 0.45 0.0 0 0 617.92 392.29
  Q 603.47 396.41 590.10 403.11
  Q 589.76 403.28 589.68 403.65
  Q 589.64 403.83 589.59 404.00"
/>
<path stroke="#a3c32c" vector-effect="non-scaling-stroke" d="
  M 589.59 404.00
  L 582.25 387.62
  A 1.93 1.92 -26.1 0 0 579.58 386.71
  Q 572.78 390.36 566.05 395.49
  Q 565.61 395.83 565.85 396.33
  Q 570.05 405.26 573.09 415.01
  Q 573.19 415.09 573.06 415.24"
/>
<path stroke="#c0d9a0" vector-effect="non-scaling-stroke" d="
  M 573.06 415.24
  Q 572.64 415.19 572.37 415.38
  Q 561.84 422.55 552.57 431.33"
/>
<path stroke="#8fc795" vector-effect="non-scaling-stroke" d="
  M 552.57 431.33
  C 552.06 431.09 551.61 430.89 551.28 430.43
  Q 546.09 423.15 540.27 416.61
  Q 540.17 416.49 540.16 416.33
  Q 540.16 416.15 540.26 416.00"
/>
<path stroke="#c0d9a0" vector-effect="non-scaling-stroke" d="
  M 540.26 416.00
  Q 551.86 405.54 564.84 396.53
  Q 565.30 396.21 565.02 395.72
  Q 554.96 378.53 541.38 364.51
  A 0.61 0.60 -45.0 0 0 540.51 364.52
  C 531.39 374.06 524.76 383.24 517.49 395.77"
/>
<path stroke="#8fc795" vector-effect="non-scaling-stroke" d="
  M 517.49 395.77
  L 501.09 385.49"
/>
<path stroke="#ceedf4" vector-effect="non-scaling-stroke" d="
  M 552.57 431.33
  Q 552.14 431.84 552.43 432.25
  Q 557.67 439.79 562.59 447.66"
/>
<path stroke="#79aa90" vector-effect="non-scaling-stroke" d="
  M 562.59 447.66
  Q 561.27 448.69 557.00 451.78
  Q 551.80 455.54 546.55 461.41"
/>
<path stroke="#ceedf4" vector-effect="non-scaling-stroke" d="
  M 546.55 461.41
  Q 546.37 460.89 545.97 460.49
  Q 545.54 460.05 545.33 459.48
  Q 540.90 447.85 533.16 437.63
  Q 523.00 424.21 508.88 413.67
  Q 508.48 413.37 508.10 413.08"
/>
<path stroke="#66b2cb" vector-effect="non-scaling-stroke" d="
  M 508.10 413.08
  L 491.78 402.86"
/>
<path stroke="#ceedf4" vector-effect="non-scaling-stroke" d="
  M 491.78 402.86
  Q 479.09 395.33 464.28 391.33
  Q 463.22 391.05 462.11 391.04
  A 0.32 0.32 0.0 0 0 461.79 391.36
  Q 461.89 413.65 465.73 431.54
  C 469.51 449.08 475.71 467.34 484.29 483.51
  Q 490.92 496.01 498.54 507.39
  Q 499.40 508.67 498.10 507.82
  Q 472.12 490.80 458.30 463.36
  Q 452.74 452.33 448.63 440.65
  Q 448.47 440.20 448.03 440.03
  Q 433.28 434.34 417.44 433.85
  Q 405.23 433.48 394.21 434.26
  A 0.46 0.46 0.0 0 0 393.79 434.82
  Q 400.78 466.19 422.44 487.74
  Q 422.89 488.18 422.93 488.77
  A 0.56 0.56 0.0 0 1 422.34 489.37
  Q 418.45 489.16 414.93 488.34
  C 413.63 488.03 411.23 488.61 410.49 488.30
  Q 407.18 486.93 404.44 487.46"
/>
<path stroke="#c5a57b" vector-effect="non-scaling-stroke" d="
  M 404.44 487.46
  L 395.30 486.98"
/>
<path stroke="#a3c32c" vector-effect="non-scaling-stroke" d="
  M 684.50 488.28
  Q 683.93 487.59 683.56 487.44"
/>
<path stroke="#e3e98c" vector-effect="non-scaling-stroke" d="
  M 683.56 487.44
  Q 681.00 485.14 677.75 484.93
  A 1.65 1.63 -57.1 0 0 676.81 485.14
  L 668.08 490.18"
/>
<path stroke="#a3c32c" vector-effect="non-scaling-stroke" d="
  M 668.08 490.18
  Q 667.48 489.72 667.27 490.09"
/>
<path stroke="#e3e98c" vector-effect="non-scaling-stroke" d="
  M 633.69 440.16
  C 650.69 435.46 667.75 432.90 685.21 434.52
  Q 686.10 434.60 685.92 435.48
  C 681.53 456.13 672.26 472.69 658.65 488.12
  Q 658.07 488.78 658.26 489.63
  A 0.77 0.77 0.0 0 0 659.15 490.22
  Q 662.27 489.64 665.51 489.13
  Q 666.61 488.95 667.61 489.12
  Q 668.37 489.25 667.76 489.72
  L 667.27 490.09"
/>
<path stroke="#c0d9a0" vector-effect="non-scaling-stroke" d="
  M 667.27 490.09
  Q 638.54 492.89 618.50 498.02
  Q 605.58 501.33 595.83 505.83
  Q 582.65 511.91 567.73 521.75"
/>
<path stroke="#aabc9b" vector-effect="non-scaling-stroke" d="
  M 567.73 521.75
  Q 568.20 518.23 569.81 515.84"
/>
<path stroke="#e3e98c" vector-effect="non-scaling-stroke" d="
  M 589.59 404.00
  C 589.83 404.66 589.78 405.54 590.03 406.21
  Q 595.52 420.78 597.19 436.32
  Q 600.54 467.40 587.07 492.29
  C 583.38 499.11 580.00 505.41 575.06 511.53
  Q 573.85 513.03 569.81 515.84"
/>
<path stroke="#8ea627" vector-effect="non-scaling-stroke" d="
  M 569.81 515.84
  L 572.65 503.07"
/>
<path stroke="#e3e98c" vector-effect="non-scaling-stroke" d="
  M 572.65 503.07
  Q 575.56 492.10 576.44 487.00
  Q 580.17 465.24 578.88 446.08
  Q 577.93 431.90 573.06 415.24"
/>
<path stroke="#ceedf4" vector-effect="non-scaling-stroke" d="
  M 540.26 416.00
  Q 540.12 415.98 539.97 415.97
  Q 539.69 415.95 539.51 415.74
  Q 529.63 404.59 517.49 395.77"
/>
<path stroke="#aabc9b" vector-effect="non-scaling-stroke" d="
  M 572.65 503.07
  Q 574.60 481.57 568.63 460.58
  Q 566.49 453.02 562.59 447.66"
/>
<path stroke="#97c4d6" vector-effect="non-scaling-stroke" d="
  M 491.78 402.86
  Q 489.65 407.29 487.72 413.26
  C 479.69 438.09 479.08 463.15 490.05 486.67
  Q 494.26 495.70 501.19 506.19
  C 505.38 512.51 510.18 517.39 515.15 522.81
  Q 515.66 523.36 515.70 522.61
  Q 515.74 522.13 515.51 521.72
  Q 512.75 516.65 510.14 511.68
  Q 504.97 501.83 501.73 486.00
  C 497.01 462.98 498.51 436.52 507.88 414.47
  Q 508.05 414.05 508.10 413.08"
/>
<path stroke="#aabc9b" vector-effect="non-scaling-stroke" d="
  M 546.55 461.41
  Q 545.97 462.21 545.94 462.50"
/>
<path stroke="#f6b786" vector-effect="non-scaling-stroke" d="
  M 545.94 462.50
  Q 536.38 472.16 530.68 483.66
  Q 526.05 493.01 524.05 500.02
  C 521.18 510.12 522.03 520.16 524.15 530.82
  Q 524.34 531.80 523.60 531.13
  L 516.72 524.99
  A 1.30 1.30 0.0 0 0 516.12 524.69
  Q 515.13 524.50 514.39 523.86
  C 504.36 515.14 492.12 507.68 479.95 503.13
  Q 460.19 495.74 439.78 493.46
  Q 426.64 491.99 413.83 489.60
  Q 410.59 489.00 413.33 490.83
  C 421.87 496.53 430.68 501.19 440.37 505.18
  Q 455.98 511.60 473.90 518.30
  C 490.67 524.56 504.79 530.84 520.60 538.64
  Q 528.67 542.62 533.14 545.43
  Q 533.23 545.49 533.20 545.52
  L 532.99 545.78
  Q 532.86 545.93 532.69 545.86
  Q 518.03 539.67 502.95 533.11
  C 484.24 524.97 462.96 517.68 443.37 509.52
  C 429.40 503.71 416.47 497.15 404.44 487.46"
/>
<path stroke="#6b963b" vector-effect="non-scaling-stroke" d="
  M 567.73 521.75
  L 560.95 537.46"
/>
<path stroke="#aabc9b" vector-effect="non-scaling-stroke" d="
  M 560.95 537.46
  Q 558.73 538.48 557.70 540.65"
/>
<path stroke="#6b963b" vector-effect="non-scaling-stroke" d="
  M 557.70 540.65
  Q 554.30 543.50 551.90 548.38
  Q 550.92 550.37 548.51 551.37
  Q 548.07 551.56 548.07 552.04
  L 548.06 553.39"
/>
<path stroke="#488a45" vector-effect="non-scaling-stroke" d="
  M 545.05 554.18
  Q 543.99 553.94 543.87 554.67"
/>
<path stroke="#a88e23" vector-effect="non-scaling-stroke" d="
  M 541.16 555.35
  Q 540.00 555.55 539.89 554.60
  Q 539.84 554.25 539.53 554.37
  Q 539.37 554.42 539.30 554.17
  Q 539.24 553.96 539.39 553.80
  Q 539.75 553.38 540.28 553.42
  Q 540.72 553.45 540.86 553.04
  Q 540.95 552.79 540.89 552.53
  A 0.59 0.59 0.0 0 0 540.16 552.09
  Q 538.05 552.66 536.26 554.04
  Q 534.69 555.27 533.51 554.04"
/>
<path stroke="#a17321" vector-effect="non-scaling-stroke" d="
  M 533.15 551.73
  C 537.15 545.10 539.63 538.30 542.32 531.25
  C 546.90 519.29 548.72 506.71 549.42 492.75
  Q 550.23 476.63 545.94 462.50"
/>
<path stroke="#c0d9a0" vector-effect="non-scaling-stroke" d="
  M 683.56 487.44
  L 679.49 486.09
  Q 677.79 485.53 676.49 486.74
  Q 670.53 492.26 663.87 496.31
  C 646.29 507.01 627.61 514.21 607.07 521.45
  C 601.46 523.42 596.14 525.77 590.60 527.91
  Q 584.90 530.13 578.46 532.79
  Q 568.24 537.01 557.70 540.65"
/>
<path stroke="#c0d9a0" vector-effect="non-scaling-stroke" d="
  M 560.95 537.46
  C 566.35 535.19 571.41 532.64 576.72 530.40
  Q 598.89 521.06 622.05 512.73
  Q 643.79 504.91 664.20 493.46
  Q 666.18 492.36 668.08 490.18"
/>
<path stroke="#9dcda9" vector-effect="non-scaling-stroke" d="
  M 684.46 498.36
  A 0.63 0.63 0.0 0 0 683.42 497.67
  L 672.34 509.52
  A 0.63 0.63 0.0 0 0 673.09 510.51
  L 680.71 506.53
  A 0.63 0.63 0.0 0 0 681.00 506.23
  L 684.46 498.36"
/>
<path stroke="#fdd188" vector-effect="non-scaling-stroke" d="
  M 402.50 508.78
  A 1.32 1.32 0.0 0 0 403.70 509.31
  L 405.45 509.11
  A 1.32 1.32 0.0 0 0 406.33 506.97
  L 399.40 498.36
  A 1.32 1.32 0.0 0 0 398.24 497.87
  L 396.94 497.99
  A 1.32 1.32 0.0 0 0 396.01 500.10
  L 402.50 508.78"
/>
<path stroke="#a6a6a6" vector-effect="non-scaling-stroke" d="
  M 331.83 634.74
  A 0.50 0.50 0.0 0 1 332.33 635.22
  L 332.59 640.76
  A 0.50 0.50 0.0 0 0 333.09 641.24
  L 341.76 641.25
  A 0.50 0.50 0.0 0 0 342.26 640.75
  L 342.41 624.09
  A 0.50 0.50 0.0 0 0 341.90 623.58
  L 292.64 623.66
  A 0.50 0.50 0.0 0 0 292.14 624.16
  L 292.14 633.95
  A 0.50 0.50 0.0 0 0 292.63 634.45
  L 297.35 634.58
  A 0.50 0.50 0.0 0 1 297.84 635.08
  L 297.77 685.50
  A 0.50 0.50 0.0 0 1 297.31 686.00
  L 294.32 686.22
  A 0.50 0.50 0.0 0 0 293.86 686.73
  L 293.91 696.70
  A 0.50 0.50 0.0 0 0 294.41 697.20
  L 343.68 696.96
  A 0.50 0.50 0.0 0 0 344.18 696.47
  L 344.46 679.56
  A 0.50 0.50 0.0 0 0 343.95 679.05
  L 334.13 679.22
  A 0.50 0.50 0.0 0 0 333.64 679.71
  L 333.52 685.37
  A 0.50 0.50 0.0 0 1 333.02 685.86
  L 310.54 685.85
  A 0.50 0.50 0.0 0 1 310.04 685.34
  L 310.27 666.38
  A 0.50 0.50 0.0 0 1 310.77 665.89
  L 333.84 665.75
  A 0.50 0.50 0.0 0 0 334.33 665.26
  L 334.40 655.82
  A 0.50 0.50 0.0 0 0 333.90 655.32
  L 310.77 655.24
  A 0.50 0.50 0.0 0 1 310.27 654.74
  L 310.33 635.38
  A 0.50 0.50 0.0 0 1 310.83 634.88
  L 331.83 634.74"
/>
<path stroke="#a6a6a6" vector-effect="non-scaling-stroke" d="
  M 370.45 649.31
  Q 370.52 647.94 370.96 649.24
  Q 377.40 668.30 384.73 686.49
  A 1.78 1.77 -9.9 0 0 386.34 687.61
  L 399.17 687.93
  A 0.97 0.95 11.8 0 0 400.09 687.34
  Q 407.76 668.86 413.90 650.45
  Q 415.03 647.04 415.25 650.63
  Q 416.33 668.57 417.75 688.50
  Q 418.02 692.25 418.62 696.08
  A 1.42 1.41 85.6 0 0 420.00 697.27
  L 433.68 697.39
  Q 434.76 697.40 434.75 696.32
  L 434.62 686.73
  Q 434.60 685.32 433.20 685.49
  Q 429.83 685.89 429.66 683.75
  Q 428.03 662.80 424.95 635.49
  A 0.42 0.41 86.9 0 1 425.36 635.03
  L 429.00 634.99
  Q 429.49 634.99 429.48 634.50
  L 429.30 624.37
  Q 429.28 623.70 428.62 623.71
  L 413.26 623.97
  Q 412.52 623.99 412.24 624.67
  Q 401.82 650.13 393.40 675.15
  A 0.29 0.29 0.0 0 1 393.01 675.33
  Q 392.85 675.26 392.79 675.10
  Q 384.23 651.30 372.88 624.24
  A 0.87 0.86 -11.0 0 0 372.10 623.72
  L 356.30 623.63
  Q 355.73 623.63 355.75 624.20
  L 356.05 633.04
  Q 356.09 634.00 357.04 634.07
  L 359.56 634.25
  A 1.21 1.20 -85.1 0 1 360.67 635.57
  L 355.93 684.59
  Q 355.86 685.29 355.16 685.33
  L 351.49 685.56
  Q 350.82 685.60 350.81 686.27
  L 350.74 696.24
  Q 350.73 697.01 351.49 696.99
  L 367.06 696.78
  Q 367.73 696.77 367.74 696.11
  C 368.03 680.42 369.67 664.62 370.45 649.31"
/>
<path stroke="#8ebcbb" vector-effect="non-scaling-stroke" d="
  M 477.62 629.36
  Q 463.92 638.45 461.80 655.39
  C 459.59 673.06 468.71 688.84 485.49 695.07
  C 498.08 699.74 512.86 696.96 525.15 691.43
  A 0.95 0.94 69.2 0 0 525.66 690.28
  L 522.26 679.81
  A 0.89 0.89 0.0 0 0 520.93 679.34
  C 508.77 687.28 495.25 690.29 483.24 680.22
  C 472.16 670.93 471.49 652.49 480.79 641.73
  C 487.67 633.78 499.98 630.81 509.69 636.31
  C 512.96 638.17 513.38 641.92 513.72 645.28
  Q 513.80 646.05 514.56 646.04
  L 523.75 645.91
  A 0.76 0.76 0.0 0 0 524.49 645.16
  Q 524.51 641.77 524.49 638.19
  C 524.41 627.59 510.72 623.74 502.24 623.46
  C 493.45 623.18 484.88 624.53 477.62 629.36"
/>
<path stroke="#8ebcbb" vector-effect="non-scaling-stroke" d="
  M 725.02 674.99
  L 750.72 674.99
  A 1.07 1.07 0.0 0 1 751.71 675.66
  Q 753.50 680.10 755.33 685.44
  C 758.10 693.50 762.10 698.21 771.40 697.14
  Q 773.47 696.90 774.02 695.14
  C 775.13 691.53 774.76 685.84 769.68 685.91
  A 2.45 2.45 0.0 0 1 767.36 684.37
  L 743.33 624.24
  A 0.99 0.99 0.0 0 0 742.41 623.62
  L 733.04 623.65
  A 1.02 1.00 -78.6 0 0 732.11 624.28
  L 707.54 684.86
  Q 707.08 685.99 705.86 686.08
  L 702.71 686.32
  A 0.75 0.74 -1.3 0 0 702.02 687.04
  L 701.80 696.02
  A 0.72 0.72 0.0 0 0 702.54 696.76
  C 707.92 696.59 714.80 698.32 717.52 691.97
  Q 720.71 684.50 723.77 675.87
  Q 724.08 674.99 725.02 674.99"
/>
<path stroke="#a6a6a6" vector-effect="non-scaling-stroke" d="
  M 270.99 658.36
  Q 270.37 658.13 270.98 657.87
  C 286.94 651.14 281.47 629.66 267.12 624.89
  Q 263.40 623.65 257.22 623.69
  Q 242.92 623.80 230.59 623.84
  Q 229.89 623.84 229.90 624.54
  L 230.09 633.60
  Q 230.10 634.36 230.85 634.44
  L 234.50 634.87
  Q 235.17 634.95 235.19 635.62
  Q 236.12 660.74 234.66 684.65
  Q 234.62 685.33 234.01 685.65
  L 233.16 686.10
  Q 232.64 686.38 232.58 686.96
  L 231.73 694.97
  A 1.53 1.53 0.0 0 0 233.19 696.66
  Q 245.96 697.19 258.78 696.82
  Q 265.53 696.63 268.75 695.68
  C 277.38 693.15 283.50 686.35 283.97 677.07
  C 284.46 667.30 279.79 661.71 270.99 658.36"
/>
<path stroke="#8ebcbb" vector-effect="non-scaling-stroke" d="
  M 536.04 635.46
  Q 535.98 654.12 536.02 670.82
  C 536.06 685.46 545.62 695.90 559.93 697.19
  C 573.25 698.38 585.50 693.14 590.45 680.16
  C 591.96 676.21 591.89 671.78 591.94 667.55
  Q 592.10 651.08 592.24 635.52
  A 0.73 0.73 0.0 0 1 592.93 634.80
  L 596.98 634.56
  Q 597.73 634.52 597.73 633.77
  L 597.73 624.53
  Q 597.73 623.87 597.08 623.84
  C 585.34 623.24 579.85 627.49 579.87 639.57
  Q 579.90 658.20 579.79 671.67
  C 579.71 681.62 571.87 686.82 562.41 686.15
  C 553.42 685.51 548.28 679.26 548.36 670.16
  Q 548.57 646.31 548.55 624.30
  A 0.45 0.45 0.0 0 0 548.10 623.85
  L 530.54 623.97
  A 0.43 0.43 0.0 0 0 530.11 624.41
  L 530.30 633.90
  A 0.73 0.73 0.0 0 0 531.01 634.61
  L 535.34 634.74
  Q 536.04 634.76 536.04 635.46"
/>
<path stroke="#8ebcbb" vector-effect="non-scaling-stroke" d="
  M 608.91 685.65
  L 604.17 685.66
  Q 603.51 685.66 603.50 686.33
  L 603.36 696.08
  Q 603.35 696.81 604.08 696.81
  L 629.82 696.84
  Q 630.24 696.84 630.24 696.43
  L 630.25 686.64
  Q 630.25 686.03 629.64 686.03
  L 622.51 685.98
  A 0.76 0.75 0.4 0 1 621.75 685.22
  Q 621.83 664.15 622.05 643.58
  Q 622.10 639.46 622.44 635.24
  Q 622.48 634.70 623.01 634.54
  L 625.91 633.65
  A 1.18 1.16 -3.5 0 0 626.72 632.75
  Q 627.48 628.76 627.34 624.89
  Q 627.31 624.16 626.58 624.13
  Q 616.49 623.64 605.27 623.96
  A 0.57 0.57 0.0 0 0 604.72 624.53
  L 604.82 633.73
  A 0.48 0.47 3.4 0 0 605.24 634.20
  L 608.75 634.55
  A 0.96 0.95 -87.7 0 1 609.61 635.49
  L 609.72 684.84
  Q 609.72 685.65 608.91 685.65"
/>
<path stroke="#8ebcbb" vector-effect="non-scaling-stroke" d="
  M 640.49 635.57
  Q 640.96 639.76 640.97 643.61
  Q 641.06 669.90 640.70 696.38
  A 0.38 0.38 0.0 0 0 641.07 696.76
  Q 652.03 697.05 664.91 696.84
  C 673.20 696.70 680.29 695.01 686.90 690.38
  Q 702.14 679.73 702.14 660.31
  Q 702.14 637.86 682.87 627.66
  Q 676.00 624.03 667.71 624.01
  Q 652.78 623.98 637.60 624.11
  A 0.67 0.67 0.0 0 0 636.94 624.82
  L 637.52 633.66
  Q 637.56 634.27 638.16 634.40
  L 639.73 634.73
  Q 640.41 634.87 640.49 635.57"
/>
<path stroke="#8ebcbb" vector-effect="non-scaling-stroke" d="
  M 817.29 663.94
  C 826.57 659.00 829.66 651.09 827.94 640.88
  Q 826.92 634.82 822.88 630.65
  C 817.47 625.09 811.47 623.85 803.72 623.94
  Q 789.29 624.11 777.09 624.00
  Q 776.34 624.00 776.35 624.74
  L 776.51 633.46
  Q 776.52 634.15 777.21 634.19
  L 780.64 634.42
  Q 781.18 634.45 781.20 634.99
  Q 781.41 639.41 781.41 642.82
  Q 781.39 670.47 781.20 695.96
  A 0.80 0.79 0.4 0 0 782.00 696.76
  L 792.55 696.67
  Q 793.26 696.66 793.26 695.95
  L 793.33 668.71
  A 0.47 0.47 0.0 0 1 793.79 668.24
  L 804.80 668.00
  A 2.70 2.69 -13.8 0 1 807.28 669.50
  Q 812.85 680.67 818.39 689.70
  C 822.70 696.72 828.79 698.21 836.71 697.19
  Q 837.28 697.12 837.29 696.55
  L 837.47 686.57
  A 0.63 0.63 0.0 0 0 836.79 685.93
  C 834.36 686.13 831.18 686.50 829.54 684.14
  Q 823.43 675.32 817.07 664.75
  Q 816.76 664.22 817.29 663.94"
/>
<path stroke="#8ebcbb" vector-effect="non-scaling-stroke" d="
  M 727.55 664.92
  A 0.36 0.36 0.0 0 0 727.89 665.40
  L 747.27 665.30
  A 0.36 0.36 0.0 0 0 747.60 664.81
  L 737.78 639.64
  A 0.36 0.36 0.0 0 0 737.11 639.64
  L 727.55 664.92"
/>
<path stroke="#a6a6a6" vector-effect="non-scaling-stroke" d="
  M 248.07 635.23
  L 248.17 654.55
  A 0.74 0.74 0.0 0 0 248.91 655.29
  L 257.36 655.24
  A 10.27 9.77 -0.3 0 0 267.58 645.42
  L 267.58 644.16
  A 10.27 9.77 -0.3 0 0 257.26 634.44
  L 248.81 634.49
  A 0.74 0.74 0.0 0 0 248.07 635.23"
/>
<path stroke="#a6a6a6" vector-effect="non-scaling-stroke" d="
  M 248.27 665.15
  L 248.23 685.37
  A 0.70 0.70 0.0 0 0 248.93 686.07
  L 258.83 686.09
  A 12.42 10.55 0.1 0 0 271.27 675.56
  L 271.27 675.04
  A 12.42 10.55 0.1 0 0 258.87 664.47
  L 248.97 664.45
  A 0.70 0.70 0.0 0 0 248.27 665.15"
/>
<path stroke="#8ebcbb" vector-effect="non-scaling-stroke" d="
  M 653.26 635.95
  L 653.34 685.05
  A 1.30 1.30 0.0 0 0 654.65 686.35
  L 666.09 686.33
  A 23.42 23.38 -0.1 0 0 689.46 662.91
  L 689.46 657.97
  A 23.42 23.38 -0.1 0 0 665.99 634.63
  L 654.55 634.65
  A 1.30 1.30 0.0 0 0 653.26 635.95"
/>
<path stroke="#8ebcbb" vector-effect="non-scaling-stroke" d="
  M 793.64 635.43
  L 793.64 656.85
  A 0.99 0.99 0.0 0 0 794.63 657.84
  L 805.88 657.84
  A 10.26 10.23 0.0 0 0 816.14 647.61
  L 816.14 644.67
  A 10.26 10.23 0.0 0 0 805.88 634.44
  L 794.63 634.44
  A 0.99 0.99 0.0 0 0 793.64 635.43"
/>
</g>
<path fill="#ffffff" d="
  M 0.00 0.00
  L 1080.00 0.00
  L 1080.00 1080.00
  L 0.00 1080.00
  L 0.00 0.00
  Z
  M 501.09 385.49
  Q 501.11 385.63 500.38 385.69
  Q 500.04 385.72 499.72 385.57
  Q 482.11 377.30 464.36 374.59
  Q 455.18 373.19 445.25 372.72
  A 1.19 1.19 0.0 0 0 444.02 373.74
  Q 440.88 396.83 443.74 418.93
  A 0.54 0.54 0.0 0 1 443.05 419.52
  C 421.54 412.99 396.24 415.68 375.35 423.79
  A 0.93 0.92 77.1 0 0 374.77 424.72
  Q 377.50 458.86 395.30 486.98
  Q 401.62 496.74 409.49 506.00
  Q 428.05 527.85 451.88 543.06
  Q 466.67 552.50 481.51 555.34
  Q 497.80 558.45 515.00 556.10
  Q 525.51 554.66 533.15 551.73
  L 533.51 554.04
  Q 517.72 561.67 500.74 562.22
  Q 483.82 562.76 468.14 556.87
  C 454.36 551.70 441.98 542.84 430.93 533.22
  Q 421.08 524.65 411.62 514.24
  A 1.96 1.95 -21.2 0 0 410.18 513.61
  Q 391.47 513.59 373.85 518.45
  A 0.59 0.58 62.5 0 0 373.56 519.38
  Q 385.92 534.42 401.86 547.75
  C 413.33 557.33 425.33 565.97 438.60 571.54
  Q 463.63 582.04 492.59 577.52
  C 508.72 575.01 522.44 569.43 534.72 560.15
  Q 537.95 557.71 541.16 555.35
  Q 543.66 553.61 543.87 554.67
  L 541.45 556.46
  A 1.08 1.08 0.0 0 0 541.38 558.15
  C 560.36 574.64 584.13 579.74 608.60 578.61
  Q 635.58 577.37 658.67 562.03
  C 675.87 550.61 692.13 536.50 705.16 520.29
  A 0.81 0.81 0.0 0 0 704.77 519.00
  Q 687.65 513.64 669.26 514.34
  A 2.72 2.70 -69.0 0 0 667.41 515.17
  C 656.91 526.28 645.14 536.75 632.98 545.37
  C 608.23 562.92 577.32 568.16 548.80 556.46
  Q 546.85 555.66 545.05 554.18
  Q 545.92 552.92 548.06 553.39
  Q 553.42 555.45 560.50 556.35
  C 581.17 558.96 602.81 557.17 620.73 547.31
  C 635.76 539.04 648.17 528.55 660.87 516.47
  Q 673.42 504.52 684.38 488.85
  Q 684.47 488.72 684.49 488.57
  Q 684.50 488.39 684.50 488.28
  Q 685.80 486.77 686.16 486.16
  C 697.11 467.57 702.97 447.04 705.49 425.78
  A 2.19 2.19 0.0 0 0 704.11 423.49
  Q 674.65 412.03 643.50 417.70
  Q 641.03 418.15 636.37 420.08
  Q 638.56 401.27 637.16 382.51
  Q 636.80 377.63 636.08 373.76
  Q 635.94 373.04 635.22 373.06
  Q 606.84 373.62 581.68 385.48
  A 0.81 0.80 -25.9 0 1 580.63 385.12
  C 570.81 366.18 557.50 351.29 541.30 337.74
  A 1.36 1.36 0.0 0 0 539.56 337.73
  Q 515.95 357.12 501.09 385.49
  Z
  M 684.46 498.36
  A 0.63 0.63 0.0 0 0 683.42 497.67
  L 672.34 509.52
  A 0.63 0.63 0.0 0 0 673.09 510.51
  L 680.71 506.53
  A 0.63 0.63 0.0 0 0 681.00 506.23
  L 684.46 498.36
  Z
  M 402.50 508.78
  A 1.32 1.32 0.0 0 0 403.70 509.31
  L 405.45 509.11
  A 1.32 1.32 0.0 0 0 406.33 506.97
  L 399.40 498.36
  A 1.32 1.32 0.0 0 0 398.24 497.87
  L 396.94 497.99
  A 1.32 1.32 0.0 0 0 396.01 500.10
  L 402.50 508.78
  Z
  M 331.83 634.74
  A 0.50 0.50 0.0 0 1 332.33 635.22
  L 332.59 640.76
  A 0.50 0.50 0.0 0 0 333.09 641.24
  L 341.76 641.25
  A 0.50 0.50 0.0 0 0 342.26 640.75
  L 342.41 624.09
  A 0.50 0.50 0.0 0 0 341.90 623.58
  L 292.64 623.66
  A 0.50 0.50 0.0 0 0 292.14 624.16
  L 292.14 633.95
  A 0.50 0.50 0.0 0 0 292.63 634.45
  L 297.35 634.58
  A 0.50 0.50 0.0 0 1 297.84 635.08
  L 297.77 685.50
  A 0.50 0.50 0.0 0 1 297.31 686.00
  L 294.32 686.22
  A 0.50 0.50 0.0 0 0 293.86 686.73
  L 293.91 696.70
  A 0.50 0.50 0.0 0 0 294.41 697.20
  L 343.68 696.96
  A 0.50 0.50 0.0 0 0 344.18 696.47
  L 344.46 679.56
  A 0.50 0.50 0.0 0 0 343.95 679.05
  L 334.13 679.22
  A 0.50 0.50 0.0 0 0 333.64 679.71
  L 333.52 685.37
  A 0.50 0.50 0.0 0 1 333.02 685.86
  L 310.54 685.85
  A 0.50 0.50 0.0 0 1 310.04 685.34
  L 310.27 666.38
  A 0.50 0.50 0.0 0 1 310.77 665.89
  L 333.84 665.75
  A 0.50 0.50 0.0 0 0 334.33 665.26
  L 334.40 655.82
  A 0.50 0.50 0.0 0 0 333.90 655.32
  L 310.77 655.24
  A 0.50 0.50 0.0 0 1 310.27 654.74
  L 310.33 635.38
  A 0.50 0.50 0.0 0 1 310.83 634.88
  L 331.83 634.74
  Z
  M 370.45 649.31
  Q 370.52 647.94 370.96 649.24
  Q 377.40 668.30 384.73 686.49
  A 1.78 1.77 -9.9 0 0 386.34 687.61
  L 399.17 687.93
  A 0.97 0.95 11.8 0 0 400.09 687.34
  Q 407.76 668.86 413.90 650.45
  Q 415.03 647.04 415.25 650.63
  Q 416.33 668.57 417.75 688.50
  Q 418.02 692.25 418.62 696.08
  A 1.42 1.41 85.6 0 0 420.00 697.27
  L 433.68 697.39
  Q 434.76 697.40 434.75 696.32
  L 434.62 686.73
  Q 434.60 685.32 433.20 685.49
  Q 429.83 685.89 429.66 683.75
  Q 428.03 662.80 424.95 635.49
  A 0.42 0.41 86.9 0 1 425.36 635.03
  L 429.00 634.99
  Q 429.49 634.99 429.48 634.50
  L 429.30 624.37
  Q 429.28 623.70 428.62 623.71
  L 413.26 623.97
  Q 412.52 623.99 412.24 624.67
  Q 401.82 650.13 393.40 675.15
  A 0.29 0.29 0.0 0 1 393.01 675.33
  Q 392.85 675.26 392.79 675.10
  Q 384.23 651.30 372.88 624.24
  A 0.87 0.86 -11.0 0 0 372.10 623.72
  L 356.30 623.63
  Q 355.73 623.63 355.75 624.20
  L 356.05 633.04
  Q 356.09 634.00 357.04 634.07
  L 359.56 634.25
  A 1.21 1.20 -85.1 0 1 360.67 635.57
  L 355.93 684.59
  Q 355.86 685.29 355.16 685.33
  L 351.49 685.56
  Q 350.82 685.60 350.81 686.27
  L 350.74 696.24
  Q 350.73 697.01 351.49 696.99
  L 367.06 696.78
  Q 367.73 696.77 367.74 696.11
  C 368.03 680.42 369.67 664.62 370.45 649.31
  Z
  M 477.62 629.36
  Q 463.92 638.45 461.80 655.39
  C 459.59 673.06 468.71 688.84 485.49 695.07
  C 498.08 699.74 512.86 696.96 525.15 691.43
  A 0.95 0.94 69.2 0 0 525.66 690.28
  L 522.26 679.81
  A 0.89 0.89 0.0 0 0 520.93 679.34
  C 508.77 687.28 495.25 690.29 483.24 680.22
  C 472.16 670.93 471.49 652.49 480.79 641.73
  C 487.67 633.78 499.98 630.81 509.69 636.31
  C 512.96 638.17 513.38 641.92 513.72 645.28
  Q 513.80 646.05 514.56 646.04
  L 523.75 645.91
  A 0.76 0.76 0.0 0 0 524.49 645.16
  Q 524.51 641.77 524.49 638.19
  C 524.41 627.59 510.72 623.74 502.24 623.46
  C 493.45 623.18 484.88 624.53 477.62 629.36
  Z
  M 725.02 674.99
  L 750.72 674.99
  A 1.07 1.07 0.0 0 1 751.71 675.66
  Q 753.50 680.10 755.33 685.44
  C 758.10 693.50 762.10 698.21 771.40 697.14
  Q 773.47 696.90 774.02 695.14
  C 775.13 691.53 774.76 685.84 769.68 685.91
  A 2.45 2.45 0.0 0 1 767.36 684.37
  L 743.33 624.24
  A 0.99 0.99 0.0 0 0 742.41 623.62
  L 733.04 623.65
  A 1.02 1.00 -78.6 0 0 732.11 624.28
  L 707.54 684.86
  Q 707.08 685.99 705.86 686.08
  L 702.71 686.32
  A 0.75 0.74 -1.3 0 0 702.02 687.04
  L 701.80 696.02
  A 0.72 0.72 0.0 0 0 702.54 696.76
  C 707.92 696.59 714.80 698.32 717.52 691.97
  Q 720.71 684.50 723.77 675.87
  Q 724.08 674.99 725.02 674.99
  Z
  M 270.99 658.36
  Q 270.37 658.13 270.98 657.87
  C 286.94 651.14 281.47 629.66 267.12 624.89
  Q 263.40 623.65 257.22 623.69
  Q 242.92 623.80 230.59 623.84
  Q 229.89 623.84 229.90 624.54
  L 230.09 633.60
  Q 230.10 634.36 230.85 634.44
  L 234.50 634.87
  Q 235.17 634.95 235.19 635.62
  Q 236.12 660.74 234.66 684.65
  Q 234.62 685.33 234.01 685.65
  L 233.16 686.10
  Q 232.64 686.38 232.58 686.96
  L 231.73 694.97
  A 1.53 1.53 0.0 0 0 233.19 696.66
  Q 245.96 697.19 258.78 696.82
  Q 265.53 696.63 268.75 695.68
  C 277.38 693.15 283.50 686.35 283.97 677.07
  C 284.46 667.30 279.79 661.71 270.99 658.36
  Z
  M 536.04 635.46
  Q 535.98 654.12 536.02 670.82
  C 536.06 685.46 545.62 695.90 559.93 697.19
  C 573.25 698.38 585.50 693.14 590.45 680.16
  C 591.96 676.21 591.89 671.78 591.94 667.55
  Q 592.10 651.08 592.24 635.52
  A 0.73 0.73 0.0 0 1 592.93 634.80
  L 596.98 634.56
  Q 597.73 634.52 597.73 633.77
  L 597.73 624.53
  Q 597.73 623.87 597.08 623.84
  C 585.34 623.24 579.85 627.49 579.87 639.57
  Q 579.90 658.20 579.79 671.67
  C 579.71 681.62 571.87 686.82 562.41 686.15
  C 553.42 685.51 548.28 679.26 548.36 670.16
  Q 548.57 646.31 548.55 624.30
  A 0.45 0.45 0.0 0 0 548.10 623.85
  L 530.54 623.97
  A 0.43 0.43 0.0 0 0 530.11 624.41
  L 530.30 633.90
  A 0.73 0.73 0.0 0 0 531.01 634.61
  L 535.34 634.74
  Q 536.04 634.76 536.04 635.46
  Z
  M 608.91 685.65
  L 604.17 685.66
  Q 603.51 685.66 603.50 686.33
  L 603.36 696.08
  Q 603.35 696.81 604.08 696.81
  L 629.82 696.84
  Q 630.24 696.84 630.24 696.43
  L 630.25 686.64
  Q 630.25 686.03 629.64 686.03
  L 622.51 685.98
  A 0.76 0.75 0.4 0 1 621.75 685.22
  Q 621.83 664.15 622.05 643.58
  Q 622.10 639.46 622.44 635.24
  Q 622.48 634.70 623.01 634.54
  L 625.91 633.65
  A 1.18 1.16 -3.5 0 0 626.72 632.75
  Q 627.48 628.76 627.34 624.89
  Q 627.31 624.16 626.58 624.13
  Q 616.49 623.64 605.27 623.96
  A 0.57 0.57 0.0 0 0 604.72 624.53
  L 604.82 633.73
  A 0.48 0.47 3.4 0 0 605.24 634.20
  L 608.75 634.55
  A 0.96 0.95 -87.7 0 1 609.61 635.49
  L 609.72 684.84
  Q 609.72 685.65 608.91 685.65
  Z
  M 640.49 635.57
  Q 640.96 639.76 640.97 643.61
  Q 641.06 669.90 640.70 696.38
  A 0.38 0.38 0.0 0 0 641.07 696.76
  Q 652.03 697.05 664.91 696.84
  C 673.20 696.70 680.29 695.01 686.90 690.38
  Q 702.14 679.73 702.14 660.31
  Q 702.14 637.86 682.87 627.66
  Q 676.00 624.03 667.71 624.01
  Q 652.78 623.98 637.60 624.11
  A 0.67 0.67 0.0 0 0 636.94 624.82
  L 637.52 633.66
  Q 637.56 634.27 638.16 634.40
  L 639.73 634.73
  Q 640.41 634.87 640.49 635.57
  Z
  M 817.29 663.94
  C 826.57 659.00 829.66 651.09 827.94 640.88
  Q 826.92 634.82 822.88 630.65
  C 817.47 625.09 811.47 623.85 803.72 623.94
  Q 789.29 624.11 777.09 624.00
  Q 776.34 624.00 776.35 624.74
  L 776.51 633.46
  Q 776.52 634.15 777.21 634.19
  L 780.64 634.42
  Q 781.18 634.45 781.20 634.99
  Q 781.41 639.41 781.41 642.82
  Q 781.39 670.47 781.20 695.96
  A 0.80 0.79 0.4 0 0 782.00 696.76
  L 792.55 696.67
  Q 793.26 696.66 793.26 695.95
  L 793.33 668.71
  A 0.47 0.47 0.0 0 1 793.79 668.24
  L 804.80 668.00
  A 2.70 2.69 -13.8 0 1 807.28 669.50
  Q 812.85 680.67 818.39 689.70
  C 822.70 696.72 828.79 698.21 836.71 697.19
  Q 837.28 697.12 837.29 696.55
  L 837.47 686.57
  A 0.63 0.63 0.0 0 0 836.79 685.93
  C 834.36 686.13 831.18 686.50 829.54 684.14
  Q 823.43 675.32 817.07 664.75
  Q 816.76 664.22 817.29 663.94
  Z"
/>
<path fill="#80b340" d="
  M 636.37 420.08
  L 632.16 438.38
  Q 632.03 438.95 632.50 439.29
  L 633.69 440.16
  Q 631.62 440.39 630.80 442.53
  Q 626.84 452.90 622.86 460.07
  C 613.81 476.36 601.85 491.73 587.72 503.95
  Q 583.54 507.56 579.85 510.97
  Q 578.45 512.26 579.51 510.68
  Q 582.19 506.67 584.99 502.57
  Q 588.69 497.16 593.18 488.72
  C 604.99 466.53 612.84 441.61 616.66 417.25
  Q 618.60 404.88 618.49 392.72
  A 0.45 0.45 0.0 0 0 617.92 392.29
  Q 603.47 396.41 590.10 403.11
  Q 589.76 403.28 589.68 403.65
  Q 589.64 403.83 589.59 404.00
  L 582.25 387.62
  A 1.93 1.92 -26.1 0 0 579.58 386.71
  Q 572.78 390.36 566.05 395.49
  Q 565.61 395.83 565.85 396.33
  Q 570.05 405.26 573.09 415.01
  Q 573.19 415.09 573.06 415.24
  Q 572.64 415.19 572.37 415.38
  Q 561.84 422.55 552.57 431.33
  C 552.06 431.09 551.61 430.89 551.28 430.43
  Q 546.09 423.15 540.27 416.61
  Q 540.17 416.49 540.16 416.33
  Q 540.16 416.15 540.26 416.00
  Q 551.86 405.54 564.84 396.53
  Q 565.30 396.21 565.02 395.72
  Q 554.96 378.53 541.38 364.51
  A 0.61 0.60 -45.0 0 0 540.51 364.52
  C 531.39 374.06 524.76 383.24 517.49 395.77
  L 501.09 385.49
  Q 515.95 357.12 539.56 337.73
  A 1.36 1.36 0.0 0 1 541.30 337.74
  C 557.50 351.29 570.81 366.18 580.63 385.12
  A 0.81 0.80 -25.9 0 0 581.68 385.48
  Q 606.84 373.62 635.22 373.06
  Q 635.94 373.04 636.08 373.76
  Q 636.80 377.63 637.16 382.51
  Q 638.56 401.27 636.37 420.08
  Z"
/>
<path fill="#ffffff" d="
  M 540.26 416.00
  Q 540.12 415.98 539.97 415.97
  Q 539.69 415.95 539.51 415.74
  Q 529.63 404.59 517.49 395.77
  C 524.76 383.24 531.39 374.06 540.51 364.52
  A 0.61 0.60 -45.0 0 1 541.38 364.51
  Q 554.96 378.53 565.02 395.72
  Q 565.30 396.21 564.84 396.53
  Q 551.86 405.54 540.26 416.00
  Z"
/>
<path fill="#9ddbe9" d="
  M 501.09 385.49
  L 517.49 395.77
  Q 529.63 404.59 539.51 415.74
  Q 539.69 415.95 539.97 415.97
  Q 540.12 415.98 540.26 416.00
  Q 540.16 416.15 540.16 416.33
  Q 540.17 416.49 540.27 416.61
  Q 546.09 423.15 551.28 430.43
  C 551.61 430.89 552.06 431.09 552.57 431.33
  Q 552.14 431.84 552.43 432.25
  Q 557.67 439.79 562.59 447.66
  Q 561.27 448.69 557.00 451.78
  Q 551.80 455.54 546.55 461.41
  Q 546.37 460.89 545.97 460.49
  Q 545.54 460.05 545.33 459.48
  Q 540.90 447.85 533.16 437.63
  Q 523.00 424.21 508.88 413.67
  Q 508.48 413.37 508.10 413.08
  L 491.78 402.86
  Q 479.09 395.33 464.28 391.33
  Q 463.22 391.05 462.11 391.04
  A 0.32 0.32 0.0 0 0 461.79 391.36
  Q 461.89 413.65 465.73 431.54
  C 469.51 449.08 475.71 467.34 484.29 483.51
  Q 490.92 496.01 498.54 507.39
  Q 499.40 508.67 498.10 507.82
  Q 472.12 490.80 458.30 463.36
  Q 452.74 452.33 448.63 440.65
  Q 448.47 440.20 448.03 440.03
  Q 433.28 434.34 417.44 433.85
  Q 405.23 433.48 394.21 434.26
  A 0.46 0.46 0.0 0 0 393.79 434.82
  Q 400.78 466.19 422.44 487.74
  Q 422.89 488.18 422.93 488.77
  A 0.56 0.56 0.0 0 1 422.34 489.37
  Q 418.45 489.16 414.93 488.34
  C 413.63 488.03 411.23 488.61 410.49 488.30
  Q 407.18 486.93 404.44 487.46
  L 395.30 486.98
  Q 377.50 458.86 374.77 424.72
  A 0.93 0.92 77.1 0 1 375.35 423.79
  C 396.24 415.68 421.54 412.99 443.05 419.52
  A 0.54 0.54 0.0 0 0 443.74 418.93
  Q 440.88 396.83 444.02 373.74
  A 1.19 1.19 0.0 0 1 445.25 372.72
  Q 455.18 373.19 464.36 374.59
  Q 482.11 377.30 499.72 385.57
  Q 500.04 385.72 500.38 385.69
  Q 501.11 385.63 501.09 385.49
  Z"
/>
<path fill="#c6d318" d="
  M 589.59 404.00
  C 589.83 404.66 589.78 405.54 590.03 406.21
  Q 595.52 420.78 597.19 436.32
  Q 600.54 467.40 587.07 492.29
  C 583.38 499.11 580.00 505.41 575.06 511.53
  Q 573.85 513.03 569.81 515.84
  L 572.65 503.07
  Q 575.56 492.10 576.44 487.00
  Q 580.17 465.24 578.88 446.08
  Q 577.93 431.90 573.06 415.24
  Q 573.19 415.09 573.09 415.01
  Q 570.05 405.26 565.85 396.33
  Q 565.61 395.83 566.05 395.49
  Q 572.78 390.36 579.58 386.71
  A 1.93 1.92 -26.1 0 1 582.25 387.62
  L 589.59 404.00
  Z"
/>
<path fill="#ffffff" d="
  M 491.78 402.86
  Q 489.65 407.29 487.72 413.26
  C 479.69 438.09 479.08 463.15 490.05 486.67
  Q 494.26 495.70 501.19 506.19
  C 505.38 512.51 510.18 517.39 515.15 522.81
  Q 515.66 523.36 515.70 522.61
  Q 515.74 522.13 515.51 521.72
  Q 512.75 516.65 510.14 511.68
  Q 504.97 501.83 501.73 486.00
  C 497.01 462.98 498.51 436.52 507.88 414.47
  Q 508.05 414.05 508.10 413.08
  Q 508.48 413.37 508.88 413.67
  Q 523.00 424.21 533.16 437.63
  Q 540.90 447.85 545.33 459.48
  Q 545.54 460.05 545.97 460.49
  Q 546.37 460.89 546.55 461.41
  Q 545.97 462.21 545.94 462.50
  Q 536.38 472.16 530.68 483.66
  Q 526.05 493.01 524.05 500.02
  C 521.18 510.12 522.03 520.16 524.15 530.82
  Q 524.34 531.80 523.60 531.13
  L 516.72 524.99
  A 1.30 1.30 0.0 0 0 516.12 524.69
  Q 515.13 524.50 514.39 523.86
  C 504.36 515.14 492.12 507.68 479.95 503.13
  Q 460.19 495.74 439.78 493.46
  Q 426.64 491.99 413.83 489.60
  Q 410.59 489.00 413.33 490.83
  C 421.87 496.53 430.68 501.19 440.37 505.18
  Q 455.98 511.60 473.90 518.30
  C 490.67 524.56 504.79 530.84 520.60 538.64
  Q 528.67 542.62 533.14 545.43
  Q 533.23 545.49 533.20 545.52
  L 532.99 545.78
  Q 532.86 545.93 532.69 545.86
  Q 518.03 539.67 502.95 533.11
  C 484.24 524.97 462.96 517.68 443.37 509.52
  C 429.40 503.71 416.47 497.15 404.44 487.46
  Q 407.18 486.93 410.49 488.30
  C 411.23 488.61 413.63 488.03 414.93 488.34
  Q 418.45 489.16 422.34 489.37
  A 0.56 0.56 0.0 0 0 422.93 488.77
  Q 422.89 488.18 422.44 487.74
  Q 400.78 466.19 393.79 434.82
  A 0.46 0.46 0.0 0 1 394.21 434.26
  Q 405.23 433.48 417.44 433.85
  Q 433.28 434.34 448.03 440.03
  Q 448.47 440.20 448.63 440.65
  Q 452.74 452.33 458.30 463.36
  Q 472.12 490.80 498.10 507.82
  Q 499.40 508.67 498.54 507.39
  Q 490.92 496.01 484.29 483.51
  C 475.71 467.34 469.51 449.08 465.73 431.54
  Q 461.89 413.65 461.79 391.36
  A 0.32 0.32 0.0 0 1 462.11 391.04
  Q 463.22 391.05 464.28 391.33
  Q 479.09 395.33 491.78 402.86
  Z"
/>
<path fill="#ffffff" d="
  M 633.69 440.16
  C 650.69 435.46 667.75 432.90 685.21 434.52
  Q 686.10 434.60 685.92 435.48
  C 681.53 456.13 672.26 472.69 658.65 488.12
  Q 658.07 488.78 658.26 489.63
  A 0.77 0.77 0.0 0 0 659.15 490.22
  Q 662.27 489.64 665.51 489.13
  Q 666.61 488.95 667.61 489.12
  Q 668.37 489.25 667.76 489.72
  L 667.27 490.09
  Q 638.54 492.89 618.50 498.02
  Q 605.58 501.33 595.83 505.83
  Q 582.65 511.91 567.73 521.75
  Q 568.20 518.23 569.81 515.84
  Q 573.85 513.03 575.06 511.53
  C 580.00 505.41 583.38 499.11 587.07 492.29
  Q 600.54 467.40 597.19 436.32
  Q 595.52 420.78 590.03 406.21
  C 589.78 405.54 589.83 404.66 589.59 404.00
  Q 589.64 403.83 589.68 403.65
  Q 589.76 403.28 590.10 403.11
  Q 603.47 396.41 617.92 392.29
  A 0.45 0.45 0.0 0 1 618.49 392.72
  Q 618.60 404.88 616.66 417.25
  C 612.84 441.61 604.99 466.53 593.18 488.72
  Q 588.69 497.16 584.99 502.57
  Q 582.19 506.67 579.51 510.68
  Q 578.45 512.26 579.85 510.97
  Q 583.54 507.56 587.72 503.95
  C 601.85 491.73 613.81 476.36 622.86 460.07
  Q 626.84 452.90 630.80 442.53
  Q 631.62 440.39 633.69 440.16
  Z"
/>
<path fill="#2f88ad" d="
  M 491.78 402.86
  L 508.10 413.08
  Q 508.05 414.05 507.88 414.47
  C 498.51 436.52 497.01 462.98 501.73 486.00
  Q 504.97 501.83 510.14 511.68
  Q 512.75 516.65 515.51 521.72
  Q 515.74 522.13 515.70 522.61
  Q 515.66 523.36 515.15 522.81
  C 510.18 517.39 505.38 512.51 501.19 506.19
  Q 494.26 495.70 490.05 486.67
  C 479.08 463.15 479.69 438.09 487.72 413.26
  Q 489.65 407.29 491.78 402.86
  Z"
/>
<path fill="#ffffff" d="
  M 573.06 415.24
  Q 577.93 431.90 578.88 446.08
  Q 580.17 465.24 576.44 487.00
  Q 575.56 492.10 572.65 503.07
  Q 574.60 481.57 568.63 460.58
  Q 566.49 453.02 562.59 447.66
  Q 557.67 439.79 552.43 432.25
  Q 552.14 431.84 552.57 431.33
  Q 561.84 422.55 572.37 415.38
  Q 572.64 415.19 573.06 415.24
  Z"
/>
<path fill="#c6d318" d="
  M 684.50 488.28
  Q 683.93 487.59 683.56 487.44
  Q 681.00 485.14 677.75 484.93
  A 1.65 1.63 -57.1 0 0 676.81 485.14
  L 668.08 490.18
  Q 667.48 489.72 667.27 490.09
  L 667.76 489.72
  Q 668.37 489.25 667.61 489.12
  Q 666.61 488.95 665.51 489.13
  Q 662.27 489.64 659.15 490.22
  A 0.77 0.77 0.0 0 1 658.26 489.63
  Q 658.07 488.78 658.65 488.12
  C 672.26 472.69 681.53 456.13 685.92 435.48
  Q 686.10 434.60 685.21 434.52
  C 667.75 432.90 650.69 435.46 633.69 440.16
  L 632.50 439.29
  Q 632.03 438.95 632.16 438.38
  L 636.37 420.08
  Q 641.03 418.15 643.50 417.70
  Q 674.65 412.03 704.11 423.49
  A 2.19 2.19 0.0 0 1 705.49 425.78
  C 702.97 447.04 697.11 467.57 686.16 486.16
  Q 685.80 486.77 684.50 488.28
  Z"
/>
<path fill="#557836" d="
  M 562.59 447.66
  Q 566.49 453.02 568.63 460.58
  Q 574.60 481.57 572.65 503.07
  L 569.81 515.84
  Q 568.20 518.23 567.73 521.75
  L 560.95 537.46
  Q 558.73 538.48 557.70 540.65
  Q 554.30 543.50 551.90 548.38
  Q 550.92 550.37 548.51 551.37
  Q 548.07 551.56 548.07 552.04
  L 548.06 553.39
  Q 545.92 552.92 545.05 554.18
  Q 543.99 553.94 543.87 554.67
  Q 543.66 553.61 541.16 555.35
  Q 540.00 555.55 539.89 554.60
  Q 539.84 554.25 539.53 554.37
  Q 539.37 554.42 539.30 554.17
  Q 539.24 553.96 539.39 553.80
  Q 539.75 553.38 540.28 553.42
  Q 540.72 553.45 540.86 553.04
  Q 540.95 552.79 540.89 552.53
  A 0.59 0.59 0.0 0 0 540.16 552.09
  Q 538.05 552.66 536.26 554.04
  Q 534.69 555.27 533.51 554.04
  L 533.15 551.73
  C 537.15 545.10 539.63 538.30 542.32 531.25
  C 546.90 519.29 548.72 506.71 549.42 492.75
  Q 550.23 476.63 545.94 462.50
  Q 545.97 462.21 546.55 461.41
  Q 551.80 455.54 557.00 451.78
  Q 561.27 448.69 562.59 447.66
  Z"
/>
<path fill="#ed6e0c" d="
  M 545.94 462.50
  Q 550.23 476.63 549.42 492.75
  C 548.72 506.71 546.90 519.29 542.32 531.25
  C 539.63 538.30 537.15 545.10 533.15 551.73
  Q 525.51 554.66 515.00 556.10
  Q 497.80 558.45 481.51 555.34
  Q 466.67 552.50 451.88 543.06
  Q 428.05 527.85 409.49 506.00
  Q 401.62 496.74 395.30 486.98
  L 404.44 487.46
  C 416.47 497.15 429.40 503.71 443.37 509.52
  C 462.96 517.68 484.24 524.97 502.95 533.11
  Q 518.03 539.67 532.69 545.86
  Q 532.86 545.93 532.99 545.78
  L 533.20 545.52
  Q 533.23 545.49 533.14 545.43
  Q 528.67 542.62 520.60 538.64
  C 504.79 530.84 490.67 524.56 473.90 518.30
  Q 455.98 511.60 440.37 505.18
  C 430.68 501.19 421.87 496.53 413.33 490.83
  Q 410.59 489.00 413.83 489.60
  Q 426.64 491.99 439.78 493.46
  Q 460.19 495.74 479.95 503.13
  C 492.12 507.68 504.36 515.14 514.39 523.86
  Q 515.13 524.50 516.12 524.69
  A 1.30 1.30 0.0 0 1 516.72 524.99
  L 523.60 531.13
  Q 524.34 531.80 524.15 530.82
  C 522.03 520.16 521.18 510.12 524.05 500.02
  Q 526.05 493.01 530.68 483.66
  Q 536.38 472.16 545.94 462.50
  Z"
/>
<path fill="#ffffff" d="
  M 683.56 487.44
  L 679.49 486.09
  Q 677.79 485.53 676.49 486.74
  Q 670.53 492.26 663.87 496.31
  C 646.29 507.01 627.61 514.21 607.07 521.45
  C 601.46 523.42 596.14 525.77 590.60 527.91
  Q 584.90 530.13 578.46 532.79
  Q 568.24 537.01 557.70 540.65
  Q 558.73 538.48 560.95 537.46
  C 566.35 535.19 571.41 532.64 576.72 530.40
  Q 598.89 521.06 622.05 512.73
  Q 643.79 504.91 664.20 493.46
  Q 666.18 492.36 668.08 490.18
  L 676.81 485.14
  A 1.65 1.63 -57.1 0 1 677.75 484.93
  Q 681.00 485.14 683.56 487.44
  Z"
/>
<path fill="#80b340" d="
  M 683.56 487.44
  Q 683.93 487.59 684.50 488.28
  Q 684.50 488.39 684.49 488.57
  Q 684.47 488.72 684.38 488.85
  Q 673.42 504.52 660.87 516.47
  C 648.17 528.55 635.76 539.04 620.73 547.31
  C 602.81 557.17 581.17 558.96 560.50 556.35
  Q 553.42 555.45 548.06 553.39
  L 548.07 552.04
  Q 548.07 551.56 548.51 551.37
  Q 550.92 550.37 551.90 548.38
  Q 554.30 543.50 557.70 540.65
  Q 568.24 537.01 578.46 532.79
  Q 584.90 530.13 590.60 527.91
  C 596.14 525.77 601.46 523.42 607.07 521.45
  C 627.61 514.21 646.29 507.01 663.87 496.31
  Q 670.53 492.26 676.49 486.74
  Q 677.79 485.53 679.49 486.09
  L 683.56 487.44
  Z"
/>
<path fill="#80b340" d="
  M 667.27 490.09
  Q 667.48 489.72 668.08 490.18
  Q 666.18 492.36 664.20 493.46
  Q 643.79 504.91 622.05 512.73
  Q 598.89 521.06 576.72 530.40
  C 571.41 532.64 566.35 535.19 560.95 537.46
  L 567.73 521.75
  Q 582.65 511.91 595.83 505.83
  Q 605.58 501.33 618.50 498.02
  Q 638.54 492.89 667.27 490.09
  Z"
/>
<path fill="#3a9b53" d="
  M 684.46 498.36
  L 681.00 506.23
  A 0.63 0.63 0.0 0 1 680.71 506.53
  L 673.09 510.51
  A 0.63 0.63 0.0 0 1 672.34 509.52
  L 683.42 497.67
  A 0.63 0.63 0.0 0 1 684.46 498.36
  Z"
/>
<path fill="#faa310" d="
  M 402.50 508.78
  L 396.01 500.10
  A 1.32 1.32 0.0 0 1 396.94 497.99
  L 398.24 497.87
  A 1.32 1.32 0.0 0 1 399.40 498.36
  L 406.33 506.97
  A 1.32 1.32 0.0 0 1 405.45 509.11
  L 403.70 509.31
  A 1.32 1.32 0.0 0 1 402.50 508.78
  Z"
/>
<path fill="#faa310" d="
  M 533.51 554.04
  Q 534.69 555.27 536.26 554.04
  Q 538.05 552.66 540.16 552.09
  A 0.59 0.59 0.0 0 1 540.89 552.53
  Q 540.95 552.79 540.86 553.04
  Q 540.72 553.45 540.28 553.42
  Q 539.75 553.38 539.39 553.80
  Q 539.24 553.96 539.30 554.17
  Q 539.37 554.42 539.53 554.37
  Q 539.84 554.25 539.89 554.60
  Q 540.00 555.55 541.16 555.35
  Q 537.95 557.71 534.72 560.15
  C 522.44 569.43 508.72 575.01 492.59 577.52
  Q 463.63 582.04 438.60 571.54
  C 425.33 565.97 413.33 557.33 401.86 547.75
  Q 385.92 534.42 373.56 519.38
  A 0.59 0.58 62.5 0 1 373.85 518.45
  Q 391.47 513.59 410.18 513.61
  A 1.96 1.95 -21.2 0 1 411.62 514.24
  Q 421.08 524.65 430.93 533.22
  C 441.98 542.84 454.36 551.70 468.14 556.87
  Q 483.82 562.76 500.74 562.22
  Q 517.72 561.67 533.51 554.04
  Z"
/>
<path fill="#3a9b53" d="
  M 543.87 554.67
  Q 543.99 553.94 545.05 554.18
  Q 546.85 555.66 548.80 556.46
  C 577.32 568.16 608.23 562.92 632.98 545.37
  C 645.14 536.75 656.91 526.28 667.41 515.17
  A 2.72 2.70 -69.0 0 1 669.26 514.34
  Q 687.65 513.64 704.77 519.00
  A 0.81 0.81 0.0 0 1 705.16 520.29
  C 692.13 536.50 675.87 550.61 658.67 562.03
  Q 635.58 577.37 608.60 578.61
  C 584.13 579.74 560.36 574.64 541.38 558.15
  A 1.08 1.08 0.0 0 1 541.45 556.46
  L 543.87 554.67
  Z"
/>
<path fill="#4d4d4d" d="
  M 331.83 634.74
  L 310.83 634.88
  A 0.50 0.50 0.0 0 0 310.33 635.38
  L 310.27 654.74
  A 0.50 0.50 0.0 0 0 310.77 655.24
  L 333.90 655.32
  A 0.50 0.50 0.0 0 1 334.40 655.82
  L 334.33 665.26
  A 0.50 0.50 0.0 0 1 333.84 665.75
  L 310.77 665.89
  A 0.50 0.50 0.0 0 0 310.27 666.38
  L 310.04 685.34
  A 0.50 0.50 0.0 0 0 310.54 685.85
  L 333.02 685.86
  A 0.50 0.50 0.0 0 0 333.52 685.37
  L 333.64 679.71
  A 0.50 0.50 0.0 0 1 334.13 679.22
  L 343.95 679.05
  A 0.50 0.50 0.0 0 1 344.46 679.56
  L 344.18 696.47
  A 0.50 0.50 0.0 0 1 343.68 696.96
  L 294.41 697.20
  A 0.50 0.50 0.0 0 1 293.91 696.70
  L 293.86 686.73
  A 0.50 0.50 0.0 0 1 294.32 686.22
  L 297.31 686.00
  A 0.50 0.50 0.0 0 0 297.77 685.50
  L 297.84 635.08
  A 0.50 0.50 0.0 0 0 297.35 634.58
  L 292.63 634.45
  A 0.50 0.50 0.0 0 1 292.14 633.95
  L 292.14 624.16
  A 0.50 0.50 0.0 0 1 292.64 623.66
  L 341.90 623.58
  A 0.50 0.50 0.0 0 1 342.41 624.09
  L 342.26 640.75
  A 0.50 0.50 0.0 0 1 341.76 641.25
  L 333.09 641.24
  A 0.50 0.50 0.0 0 1 332.59 640.76
  L 332.33 635.22
  A 0.50 0.50 0.0 0 0 331.83 634.74
  Z"
/>
<path fill="#4d4d4d" d="
  M 370.45 649.31
  C 369.67 664.62 368.03 680.42 367.74 696.11
  Q 367.73 696.77 367.06 696.78
  L 351.49 696.99
  Q 350.73 697.01 350.74 696.24
  L 350.81 686.27
  Q 350.82 685.60 351.49 685.56
  L 355.16 685.33
  Q 355.86 685.29 355.93 684.59
  L 360.67 635.57
  A 1.21 1.20 -85.1 0 0 359.56 634.25
  L 357.04 634.07
  Q 356.09 634.00 356.05 633.04
  L 355.75 624.20
  Q 355.73 623.63 356.30 623.63
  L 372.10 623.72
  A 0.87 0.86 -11.0 0 1 372.88 624.24
  Q 384.23 651.30 392.79 675.10
  Q 392.85 675.26 393.01 675.33
  A 0.29 0.29 0.0 0 0 393.40 675.15
  Q 401.82 650.13 412.24 624.67
  Q 412.52 623.99 413.26 623.97
  L 428.62 623.71
  Q 429.28 623.70 429.30 624.37
  L 429.48 634.50
  Q 429.49 634.99 429.00 634.99
  L 425.36 635.03
  A 0.42 0.41 86.9 0 0 424.95 635.49
  Q 428.03 662.80 429.66 683.75
  Q 429.83 685.89 433.20 685.49
  Q 434.60 685.32 434.62 686.73
  L 434.75 696.32
  Q 434.76 697.40 433.68 697.39
  L 420.00 697.27
  A 1.42 1.41 85.6 0 1 418.62 696.08
  Q 418.02 692.25 417.75 688.50
  Q 416.33 668.57 415.25 650.63
  Q 415.03 647.04 413.90 650.45
  Q 407.76 668.86 400.09 687.34
  A 0.97 0.95 11.8 0 1 399.17 687.93
  L 386.34 687.61
  A 1.78 1.77 -9.9 0 1 384.73 686.49
  Q 377.40 668.30 370.96 649.24
  Q 370.52 647.94 370.45 649.31
  Z"
/>
<path fill="#1c7876" d="
  M 477.62 629.36
  C 484.88 624.53 493.45 623.18 502.24 623.46
  C 510.72 623.74 524.41 627.59 524.49 638.19
  Q 524.51 641.77 524.49 645.16
  A 0.76 0.76 0.0 0 1 523.75 645.91
  L 514.56 646.04
  Q 513.80 646.05 513.72 645.28
  C 513.38 641.92 512.96 638.17 509.69 636.31
  C 499.98 630.81 487.67 633.78 480.79 641.73
  C 471.49 652.49 472.16 670.93 483.24 680.22
  C 495.25 690.29 508.77 687.28 520.93 679.34
  A 0.89 0.89 0.0 0 1 522.26 679.81
  L 525.66 690.28
  A 0.95 0.94 69.2 0 1 525.15 691.43
  C 512.86 696.96 498.08 699.74 485.49 695.07
  C 468.71 688.84 459.59 673.06 461.80 655.39
  Q 463.92 638.45 477.62 629.36
  Z"
/>
<path fill="#1c7876" d="
  M 723.77 675.87
  Q 720.71 684.50 717.52 691.97
  C 714.80 698.32 707.92 696.59 702.54 696.76
  A 0.72 0.72 0.0 0 1 701.80 696.02
  L 702.02 687.04
  A 0.75 0.74 -1.3 0 1 702.71 686.32
  L 705.86 686.08
  Q 707.08 685.99 707.54 684.86
  L 732.11 624.28
  A 1.02 1.00 -78.6 0 1 733.04 623.65
  L 742.41 623.62
  A 0.99 0.99 0.0 0 1 743.33 624.24
  L 767.36 684.37
  A 2.45 2.45 0.0 0 0 769.68 685.91
  C 774.76 685.84 775.13 691.53 774.02 695.14
  Q 773.47 696.90 771.40 697.14
  C 762.10 698.21 758.10 693.50 755.33 685.44
  Q 753.50 680.10 751.71 675.66
  A 1.07 1.07 0.0 0 0 750.72 674.99
  L 725.02 674.99
  Q 724.08 674.99 723.77 675.87
  Z
  M 727.55 664.92
  A 0.36 0.36 0.0 0 0 727.89 665.40
  L 747.27 665.30
  A 0.36 0.36 0.0 0 0 747.60 664.81
  L 737.78 639.64
  A 0.36 0.36 0.0 0 0 737.11 639.64
  L 727.55 664.92
  Z"
/>
<path fill="#4d4d4d" d="
  M 270.99 658.36
  C 279.79 661.71 284.46 667.30 283.97 677.07
  C 283.50 686.35 277.38 693.15 268.75 695.68
  Q 265.53 696.63 258.78 696.82
  Q 245.96 697.19 233.19 696.66
  A 1.53 1.53 0.0 0 1 231.73 694.97
  L 232.58 686.96
  Q 232.64 686.38 233.16 686.10
  L 234.01 685.65
  Q 234.62 685.33 234.66 684.65
  Q 236.12 660.74 235.19 635.62
  Q 235.17 634.95 234.50 634.87
  L 230.85 634.44
  Q 230.10 634.36 230.09 633.60
  L 229.90 624.54
  Q 229.89 623.84 230.59 623.84
  Q 242.92 623.80 257.22 623.69
  Q 263.40 623.65 267.12 624.89
  C 281.47 629.66 286.94 651.14 270.98 657.87
  Q 270.37 658.13 270.99 658.36
  Z
  M 248.07 635.23
  L 248.17 654.55
  A 0.74 0.74 0.0 0 0 248.91 655.29
  L 257.36 655.24
  A 10.27 9.77 -0.3 0 0 267.58 645.42
  L 267.58 644.16
  A 10.27 9.77 -0.3 0 0 257.26 634.44
  L 248.81 634.49
  A 0.74 0.74 0.0 0 0 248.07 635.23
  Z
  M 248.27 665.15
  L 248.23 685.37
  A 0.70 0.70 0.0 0 0 248.93 686.07
  L 258.83 686.09
  A 12.42 10.55 0.1 0 0 271.27 675.56
  L 271.27 675.04
  A 12.42 10.55 0.1 0 0 258.87 664.47
  L 248.97 664.45
  A 0.70 0.70 0.0 0 0 248.27 665.15
  Z"
/>
<path fill="#1c7876" d="
  M 535.34 634.74
  L 531.01 634.61
  A 0.73 0.73 0.0 0 1 530.30 633.90
  L 530.11 624.41
  A 0.43 0.43 0.0 0 1 530.54 623.97
  L 548.10 623.85
  A 0.45 0.45 0.0 0 1 548.55 624.30
  Q 548.57 646.31 548.36 670.16
  C 548.28 679.26 553.42 685.51 562.41 686.15
  C 571.87 686.82 579.71 681.62 579.79 671.67
  Q 579.90 658.20 579.87 639.57
  C 579.85 627.49 585.34 623.24 597.08 623.84
  Q 597.73 623.87 597.73 624.53
  L 597.73 633.77
  Q 597.73 634.52 596.98 634.56
  L 592.93 634.80
  A 0.73 0.73 0.0 0 0 592.24 635.52
  Q 592.10 651.08 591.94 667.55
  C 591.89 671.78 591.96 676.21 590.45 680.16
  C 585.50 693.14 573.25 698.38 559.93 697.19
  C 545.62 695.90 536.06 685.46 536.02 670.82
  Q 535.98 654.12 536.04 635.46
  Q 536.04 634.76 535.34 634.74
  Z"
/>
<path fill="#1c7876" d="
  M 608.91 685.65
  Q 609.72 685.65 609.72 684.84
  L 609.61 635.49
  A 0.96 0.95 -87.7 0 0 608.75 634.55
  L 605.24 634.20
  A 0.48 0.47 3.4 0 1 604.82 633.73
  L 604.72 624.53
  A 0.57 0.57 0.0 0 1 605.27 623.96
  Q 616.49 623.64 626.58 624.13
  Q 627.31 624.16 627.34 624.89
  Q 627.48 628.76 626.72 632.75
  A 1.18 1.16 -3.5 0 1 625.91 633.65
  L 623.01 634.54
  Q 622.48 634.70 622.44 635.24
  Q 622.10 639.46 622.05 643.58
  Q 621.83 664.15 621.75 685.22
  A 0.76 0.75 0.4 0 0 622.51 685.98
  L 629.64 686.03
  Q 630.25 686.03 630.25 686.64
  L 630.24 696.43
  Q 630.24 696.84 629.82 696.84
  L 604.08 696.81
  Q 603.35 696.81 603.36 696.08
  L 603.50 686.33
  Q 603.51 685.66 604.17 685.66
  L 608.91 685.65
  Z"
/>
<path fill="#1c7876" d="
  M 639.73 634.73
  L 638.16 634.40
  Q 637.56 634.27 637.52 633.66
  L 636.94 624.82
  A 0.67 0.67 0.0 0 1 637.60 624.11
  Q 652.78 623.98 667.71 624.01
  Q 676.00 624.03 682.87 627.66
  Q 702.14 637.86 702.14 660.31
  Q 702.14 679.73 686.90 690.38
  C 680.29 695.01 673.20 696.70 664.91 696.84
  Q 652.03 697.05 641.07 696.76
  A 0.38 0.38 0.0 0 1 640.70 696.38
  Q 641.06 669.90 640.97 643.61
  Q 640.96 639.76 640.49 635.57
  Q 640.41 634.87 639.73 634.73
  Z
  M 653.26 635.95
  L 653.34 685.05
  A 1.30 1.30 0.0 0 0 654.65 686.35
  L 666.09 686.33
  A 23.42 23.38 -0.1 0 0 689.46 662.91
  L 689.46 657.97
  A 23.42 23.38 -0.1 0 0 665.99 634.63
  L 654.55 634.65
  A 1.30 1.30 0.0 0 0 653.26 635.95
  Z"
/>
<path fill="#1c7876" d="
  M 817.07 664.75
  Q 823.43 675.32 829.54 684.14
  C 831.18 686.50 834.36 686.13 836.79 685.93
  A 0.63 0.63 0.0 0 1 837.47 686.57
  L 837.29 696.55
  Q 837.28 697.12 836.71 697.19
  C 828.79 698.21 822.70 696.72 818.39 689.70
  Q 812.85 680.67 807.28 669.50
  A 2.70 2.69 -13.8 0 0 804.80 668.00
  L 793.79 668.24
  A 0.47 0.47 0.0 0 0 793.33 668.71
  L 793.26 695.95
  Q 793.26 696.66 792.55 696.67
  L 782.00 696.76
  A 0.80 0.79 0.4 0 1 781.20 695.96
  Q 781.39 670.47 781.41 642.82
  Q 781.41 639.41 781.20 634.99
  Q 781.18 634.45 780.64 634.42
  L 777.21 634.19
  Q 776.52 634.15 776.51 633.46
  L 776.35 624.74
  Q 776.34 624.00 777.09 624.00
  Q 789.29 624.11 803.72 623.94
  C 811.47 623.85 817.47 625.09 822.88 630.65
  Q 826.92 634.82 827.94 640.88
  C 829.66 651.09 826.57 659.00 817.29 663.94
  Q 816.76 664.22 817.07 664.75
  Z
  M 793.64 635.43
  L 793.64 656.85
  A 0.99 0.99 0.0 0 0 794.63 657.84
  L 805.88 657.84
  A 10.26 10.23 0.0 0 0 816.14 647.61
  L 816.14 644.67
  A 10.26 10.23 0.0 0 0 805.88 634.44
  L 794.63 634.44
  A 0.99 0.99 0.0 0 0 793.64 635.43
  Z"
/>
<path fill="#ffffff" d="
  M 248.07 635.23
  A 0.74 0.74 0.0 0 1 248.81 634.49
  L 257.26 634.44
  A 10.27 9.77 -0.3 0 1 267.58 644.16
  L 267.58 645.42
  A 10.27 9.77 -0.3 0 1 257.36 655.24
  L 248.91 655.29
  A 0.74 0.74 0.0 0 1 248.17 654.55
  L 248.07 635.23
  Z"
/>
<path fill="#ffffff" d="
  M 653.26 635.95
  A 1.30 1.30 0.0 0 1 654.55 634.65
  L 665.99 634.63
  A 23.42 23.38 -0.1 0 1 689.46 657.97
  L 689.46 662.91
  A 23.42 23.38 -0.1 0 1 666.09 686.33
  L 654.65 686.35
  A 1.30 1.30 0.0 0 1 653.34 685.05
  L 653.26 635.95
  Z"
/>
<path fill="#ffffff" d="
  M 793.64 635.43
  A 0.99 0.99 0.0 0 1 794.63 634.44
  L 805.88 634.44
  A 10.26 10.23 -0.0 0 1 816.14 644.67
  L 816.14 647.61
  A 10.26 10.23 0.0 0 1 805.88 657.84
  L 794.63 657.84
  A 0.99 0.99 0.0 0 1 793.64 656.85
  L 793.64 635.43
  Z"
/>
<path fill="#ffffff" d="
  M 727.55 664.92
  L 737.11 639.64
  A 0.36 0.36 0.0 0 1 737.78 639.64
  L 747.60 664.81
  A 0.36 0.36 0.0 0 1 747.27 665.30
  L 727.89 665.40
  A 0.36 0.36 0.0 0 1 727.55 664.92
  Z"
/>
<path fill="#ffffff" d="
  M 248.27 665.15
  A 0.70 0.70 0.0 0 1 248.97 664.45
  L 258.87 664.47
  A 12.42 10.55 0.1 0 1 271.27 675.04
  L 271.27 675.56
  A 12.42 10.55 0.1 0 1 258.83 686.09
  L 248.93 686.07
  A 0.70 0.70 0.0 0 1 248.23 685.37
  L 248.27 665.15
  Z"
/>
</svg>
